<?xml version="1.0" standalone="no"?>
<!DOCTYPE svg PUBLIC "-//W3C//DTD SVG 1.1//EN" "http://www.w3.org/Graphics/SVG/1.1/DTD/svg11.dtd" >
<svg xmlns="http://www.w3.org/2000/svg" width="100%" height="100%">
<metadata>
Created by FontXChange 20110222 at Thu Jul  5 10:03:13 2012
 By Ramon Navarro Bosch
Copr. 1994, Tobias Frere-Jones. Designed by Tobias Frere-Jones. Produced by The Font Bureau, Inc.
</metadata>
<defs>
<font id="Interstate-Black" horiz-adv-x="826" >
  <font-face 
    font-family="Interstate"
    font-weight="400"
    font-stretch="normal"
    units-per-em="1000"
    panose-1="2 0 6 3 4 0 0 2 0 4"
    ascent="800"
    descent="-200"
    x-height="525"
    cap-height="700"
    bbox="-65 -198 1515 924"
    underline-thickness="20"
    underline-position="-113"
    unicode-range="U+0005-2122"
  />
<missing-glyph horiz-adv-x="500" 
 />
    <glyph glyph-name=".notdef" horiz-adv-x="500" 
 />
    <glyph glyph-name="NUL" horiz-adv-x="0" 
 />
    <glyph glyph-name="nonmarkingreturn" horiz-adv-x="330" 
 />
    <glyph glyph-name="space" unicode=" " horiz-adv-x="330" 
 />
    <glyph glyph-name="space" unicode="&#xa0;" horiz-adv-x="330" 
 />
    <glyph glyph-name="Lslash" horiz-adv-x="635" 
d="M91 0v230l-56 -37v168l56 37v302h191v-202l98 62v-168l-98 -62v-161h315v-169h-506z" />
    <glyph glyph-name="lslash" horiz-adv-x="342" 
d="M258 311v-311h-174v234l-62 -35v168l62 35v255l174 72v-250l62 35v-168z" />
    <glyph glyph-name="Scaron" unicode="&#x160;" horiz-adv-x="679" 
d="M628 215q0 -60 -21.5 -103t-60 -70t-91.5 -40t-116 -13q-85 0 -162.5 24.5t-132.5 60.5l94 152q19 -13 44.5 -25.5t53 -22.5t55.5 -16t52 -6q52 0 71.5 10t19.5 35q0 10 -5.5 18t-19 15.5t-36.5 15t-58 15.5q-63 15 -110 32t-78 42.5t-46.5 61.5t-15.5 89q0 49 19.5 90
t55.5 70t87 45t114 16q90 0 156.5 -21t122.5 -60l-94 -152q-47 32 -94 49t-101 17q-44 0 -58 -12t-14 -31q0 -10 5.5 -17.5t18.5 -14t35 -13t56 -14.5q66 -16 114 -35t79 -45t46 -62t15 -85zM414 747h-142l-131 160h120l83 -64l83 64h118z" />
    <glyph glyph-name="scaron" unicode="&#x161;" horiz-adv-x="523" 
d="M479 166q0 -91 -58 -134t-159 -43q-58 0 -113 11.5t-106 31.5l42 136q48 -21 97 -33.5t84 -12.5q26 0 37 6t11 18q0 13 -8 19.5t-34 13.5q-61 16 -102.5 31.5t-67 36t-37 48.5t-11.5 69q0 81 53 126.5t161 45.5q30 0 55 -2.5t49 -7t48 -12t50 -16.5l-40 -139
q-52 23 -92 33.5t-75 10.5q-26 0 -35 -5.5t-9 -17.5q0 -6 1.5 -10.5t7 -8.5t16 -8t27.5 -9q55 -15 94.5 -30t65 -35t37 -47t11.5 -66zM330 595h-142l-131 160h120l83 -64l83 64h118z" />
    <glyph glyph-name="Yacute" unicode="&#xdd;" horiz-adv-x="746" 
d="M471 261v-261h-196v258l-259 442h224l54 -106q28 -55 49 -102.5t31 -78.5q10 31 31 78.5t49 102.5l54 106h222zM434 743h-128l72 160h213z" />
    <glyph glyph-name="yacute" unicode="&#xfd;" horiz-adv-x="590" 
d="M321 -185h-172l66 163l-200 547h191l50 -187q4 -17 10 -41t12 -50.5t11 -51.5t7 -44q3 19 8 44.5t11 51.5t11.5 51t10.5 42l49 185h189zM362 586h-128l72 160h213z" />
    <glyph glyph-name="Thorn" unicode="&#xde;" horiz-adv-x="679" 
d="M645 364q0 -67 -21 -113t-59 -74.5t-90.5 -41t-115.5 -12.5h-97v-123h-191v700h191v-104h110q61 0 111.5 -12.5t86.5 -40t55.5 -72t19.5 -107.5zM452 361q0 35 -19 56t-66 21h-105v-157h102q48 0 68 20t20 60z" />
    <glyph glyph-name="thorn" unicode="&#xfe;" horiz-adv-x="572" 
d="M535 264q0 -141 -48 -208t-134 -67q-39 0 -67 14.5t-50 31.5v-156l-180 -72v850l180 72v-241q27 21 54.5 34.5t69.5 13.5q37 0 69 -15t55.5 -48t37 -84.5t13.5 -124.5zM357 258q0 39 -3.5 64.5t-10.5 40t-18 20t-25 5.5q-20 0 -35 -7t-29 -18v-201q14 -11 29 -18t36 -7
q14 0 24.5 5t17.5 18.5t10.5 37t3.5 60.5z" />
    <glyph glyph-name="Zcaron" horiz-adv-x="710" 
d="M66 0v139l205 250q16 20 35.5 42t38 43t35.5 39.5t29 31.5q-20 -1 -46 -1.5t-53.5 -1t-55.5 -0.5h-53h-115v158h552v-139l-205 -250q-17 -20 -36 -42t-37.5 -43t-35.5 -39.5t-29 -31.5q20 1 46 1.5t53.5 1t55.5 0.5h53h137v-158h-574zM429 745h-142l-131 160h120l83 -64
l83 64h118z" />
    <glyph glyph-name="zcaron" horiz-adv-x="565" 
d="M52 0v125l115 125q16 18 34.5 37t36 37t32.5 33.5t26 25.5q-25 -1 -63.5 -2.5t-71.5 -1.5h-97v146h444v-125l-115 -125q-16 -18 -34.5 -37t-36 -37t-33 -33.5l-25.5 -25.5q25 1 63.5 2.5t71.5 1.5h109v-146h-456zM359 595h-142l-131 160h120l83 -64l83 64h118z" />
    <glyph glyph-name="onehalf" unicode="&#xbd;" 
d="M652 217q-23 -19 -40 -7q-10 7 -12 16.5t2 26.5l8 36h-132v-113l36 8q17 4 26.5 2t16.5 -12q12 -17 -7 -40l-137 -159l-137 159q-19 23 -7 40q7 10 16.5 12t26.5 -2l36 -8v113h-132l8 -36q4 -17 2 -26.5t-12 -16.5q-17 -12 -40 7l-159 137l159 137q23 19 40 7
q10 -7 12 -16.5t-2 -26.5l-8 -36h132v105l-36 -8q-17 -4 -26.5 -2t-16.5 12q-12 17 7 40l137 159l137 -159q19 -23 7 -40q-7 -10 -16.5 -12t-26.5 2l-36 8v-105h132l-8 36q-4 17 -2 26.5t12 16.5q17 12 40 -7l159 -137z" />
    <glyph glyph-name="onequarter" unicode="&#xbc;" 
d="M652 217q-23 -19 -40 -7q-10 7 -12 16.5t2 26.5l8 36h-132v-113l36 8q17 4 26.5 2t16.5 -12q12 -17 -7 -40l-137 -159l-137 159q-19 23 -7 40q7 10 16.5 12t26.5 -2l36 -8v113h-132l8 -36q4 -17 2 -26.5t-12 -16.5q-17 -12 -40 7l-159 137l159 137q23 19 40 7
q10 -7 12 -16.5t-2 -26.5l-8 -36h132v105l-36 -8q-17 -4 -26.5 -2t-16.5 12q-12 17 7 40l137 159l137 -159q19 -23 7 -40q-7 -10 -16.5 -12t-26.5 2l-36 8v-105h132l-8 36q-4 17 -2 26.5t12 16.5q17 12 40 -7l159 -137z" />
    <glyph glyph-name="onesuperior" unicode="&#xb9;" 
d="M652 217q-23 -19 -40 -7q-10 7 -12 16.5t2 26.5l8 36h-132v-113l36 8q17 4 26.5 2t16.5 -12q12 -17 -7 -40l-137 -159l-137 159q-19 23 -7 40q7 10 16.5 12t26.5 -2l36 -8v113h-132l8 -36q4 -17 2 -26.5t-12 -16.5q-17 -12 -40 7l-159 137l159 137q23 19 40 7
q10 -7 12 -16.5t-2 -26.5l-8 -36h132v105l-36 -8q-17 -4 -26.5 -2t-16.5 12q-12 17 7 40l137 159l137 -159q19 -23 7 -40q-7 -10 -16.5 -12t-26.5 2l-36 8v-105h132l-8 36q-4 17 -2 26.5t12 16.5q17 12 40 -7l159 -137z" />
    <glyph glyph-name="threequarters" unicode="&#xbe;" 
d="M652 217q-23 -19 -40 -7q-10 7 -12 16.5t2 26.5l8 36h-132v-113l36 8q17 4 26.5 2t16.5 -12q12 -17 -7 -40l-137 -159l-137 159q-19 23 -7 40q7 10 16.5 12t26.5 -2l36 -8v113h-132l8 -36q4 -17 2 -26.5t-12 -16.5q-17 -12 -40 7l-159 137l159 137q23 19 40 7
q10 -7 12 -16.5t-2 -26.5l-8 -36h132v105l-36 -8q-17 -4 -26.5 -2t-16.5 12q-12 17 7 40l137 159l137 -159q19 -23 7 -40q-7 -10 -16.5 -12t-26.5 2l-36 8v-105h132l-8 36q-4 17 -2 26.5t12 16.5q17 12 40 -7l159 -137z" />
    <glyph glyph-name="threesuperior" unicode="&#xb3;" 
d="M652 217q-23 -19 -40 -7q-10 7 -12 16.5t2 26.5l8 36h-132v-113l36 8q17 4 26.5 2t16.5 -12q12 -17 -7 -40l-137 -159l-137 159q-19 23 -7 40q7 10 16.5 12t26.5 -2l36 -8v113h-132l8 -36q4 -17 2 -26.5t-12 -16.5q-17 -12 -40 7l-159 137l159 137q23 19 40 7
q10 -7 12 -16.5t-2 -26.5l-8 -36h132v105l-36 -8q-17 -4 -26.5 -2t-16.5 12q-12 17 7 40l137 159l137 -159q19 -23 7 -40q-7 -10 -16.5 -12t-26.5 2l-36 8v-105h132l-8 36q-4 17 -2 26.5t12 16.5q17 12 40 -7l159 -137z" />
    <glyph glyph-name="twosuperior" unicode="&#xb2;" 
d="M652 217q-23 -19 -40 -7q-10 7 -12 16.5t2 26.5l8 36h-132v-113l36 8q17 4 26.5 2t16.5 -12q12 -17 -7 -40l-137 -159l-137 159q-19 23 -7 40q7 10 16.5 12t26.5 -2l36 -8v113h-132l8 -36q4 -17 2 -26.5t-12 -16.5q-17 -12 -40 7l-159 137l159 137q23 19 40 7
q10 -7 12 -16.5t-2 -26.5l-8 -36h132v105l-36 -8q-17 -4 -26.5 -2t-16.5 12q-12 17 7 40l137 159l137 -159q19 -23 7 -40q-7 -10 -16.5 -12t-26.5 2l-36 8v-105h132l-8 36q-4 17 -2 26.5t12 16.5q17 12 40 -7l159 -137z" />
    <glyph glyph-name="brokenbar" unicode="&#xa6;" 
d="M652 217q-23 -19 -40 -7q-10 7 -12 16.5t2 26.5l8 36h-132v-113l36 8q17 4 26.5 2t16.5 -12q12 -17 -7 -40l-137 -159l-137 159q-19 23 -7 40q7 10 16.5 12t26.5 -2l36 -8v113h-132l8 -36q4 -17 2 -26.5t-12 -16.5q-17 -12 -40 7l-159 137l159 137q23 19 40 7
q10 -7 12 -16.5t-2 -26.5l-8 -36h132v105l-36 -8q-17 -4 -26.5 -2t-16.5 12q-12 17 7 40l137 159l137 -159q19 -23 7 -40q-7 -10 -16.5 -12t-26.5 2l-36 8v-105h132l-8 36q-4 17 -2 26.5t12 16.5q17 12 40 -7l159 -137z" />
    <glyph glyph-name="minus" unicode="&#xad;" 
d="M652 217q-23 -19 -40 -7q-10 7 -12 16.5t2 26.5l8 36h-132v-113l36 8q17 4 26.5 2t16.5 -12q12 -17 -7 -40l-137 -159l-137 159q-19 23 -7 40q7 10 16.5 12t26.5 -2l36 -8v113h-132l8 -36q4 -17 2 -26.5t-12 -16.5q-17 -12 -40 7l-159 137l159 137q23 19 40 7
q10 -7 12 -16.5t-2 -26.5l-8 -36h132v105l-36 -8q-17 -4 -26.5 -2t-16.5 12q-12 17 7 40l137 159l137 -159q19 -23 7 -40q-7 -10 -16.5 -12t-26.5 2l-36 8v-105h132l-8 36q-4 17 -2 26.5t12 16.5q17 12 40 -7l159 -137z" />
    <glyph glyph-name="multiply" unicode="&#xd7;" 
d="M652 217q-23 -19 -40 -7q-10 7 -12 16.5t2 26.5l8 36h-132v-113l36 8q17 4 26.5 2t16.5 -12q12 -17 -7 -40l-137 -159l-137 159q-19 23 -7 40q7 10 16.5 12t26.5 -2l36 -8v113h-132l8 -36q4 -17 2 -26.5t-12 -16.5q-17 -12 -40 7l-159 137l159 137q23 19 40 7
q10 -7 12 -16.5t-2 -26.5l-8 -36h132v105l-36 -8q-17 -4 -26.5 -2t-16.5 12q-12 17 7 40l137 159l137 -159q19 -23 7 -40q-7 -10 -16.5 -12t-26.5 2l-36 8v-105h132l-8 36q-4 17 -2 26.5t12 16.5q17 12 40 -7l159 -137z" />
    <glyph glyph-name="eth" unicode="&#xf0;" horiz-adv-x="569" 
d="M534 267q0 -76 -21 -129t-55.5 -86t-79.5 -48t-94 -15t-94 15.5t-79.5 46t-55 75t-20.5 102.5q0 59 19.5 102.5t50 72.5t67.5 43.5t72 14.5q49 0 81 -10t56 -33q-6 29 -21 54.5t-37 46.5l-40 -42l-72 59l32 33q-43 18 -96 21v121q110 0 191 -43l42 43l72 -59l-38 -39
q60 -58 90 -146t30 -200zM355 228q0 49 -19.5 70.5t-51.5 21.5t-51.5 -21.5t-19.5 -70.5q0 -48 19.5 -70.5t51.5 -22.5t51.5 22.5t19.5 70.5z" />
    <glyph glyph-name="exclam" unicode="!" horiz-adv-x="350" 
d="M241 250h-132l-33 200v250h198v-250zM279 93q0 -22 -8 -41t-21.5 -33t-33 -22t-41.5 -8q-23 0 -42 8t-32.5 22t-21.5 33t-8 41q0 45 29.5 73.5t74.5 28.5t74.5 -28.5t29.5 -73.5z" />
    <glyph glyph-name="quotedbl" unicode="&#x22;" horiz-adv-x="620" 
d="M524 373h-135l-39 327h213zM231 373h-135l-39 327h213z" />
    <glyph glyph-name="numbersign" unicode="#" horiz-adv-x="800" 
d="M645 122v-122h-182v122h-126v-122h-182v122h-105v153h105v150h-105v153h105v122h182v-122h126v122h182v-122h105v-153h-105v-150h105v-153h-105zM474 438h-148v-176h148v176z" />
    <glyph glyph-name="dollar" unicode="$" horiz-adv-x="661" 
d="M618 215q0 -47 -13.5 -83t-38.5 -62t-59.5 -42.5t-77.5 -24.5v-103h-188v101q-60 10 -113 31t-94 47l94 147q19 -13 44.5 -25.5t53 -22.5t55.5 -16t52 -6q52 0 71.5 10t19.5 35q0 10 -5.5 18t-19 15.5t-36.5 15t-58 15.5q-63 15 -110 32t-78 42.5t-46.5 61.5t-15.5 89
q0 81 49 134.5t137 72.5v103h188v-102q54 -8 98 -26.5t83 -46.5l-94 -147q-47 32 -94 49t-101 17q-44 0 -58 -12t-14 -31q0 -10 5.5 -17.5t18.5 -14t35 -13t56 -14.5q66 -16 114 -35t79 -45t46 -62t15 -85z" />
    <glyph glyph-name="percent" unicode="%" horiz-adv-x="1080" 
d="M1050 208q0 -54 -16 -95t-44 -68.5t-66 -41.5t-82 -14t-82 13.5t-65.5 40.5t-43 68t-15.5 95t16 95t44 68.5t66 41.5t82 14t82 -13.5t65.5 -40.5t43 -68t15.5 -95zM402 0h-153l429 700h153zM444 494q0 -54 -16 -95t-44 -68.5t-66 -41.5t-82 -14t-82 13.5t-65.5 40.5
t-43 68t-15.5 95t16 95t44 68.5t66 41.5t82 14t82 -13.5t65.5 -40.5t43 -68t15.5 -95zM903 206q0 63 -15 86.5t-45 23.5q-32 0 -46 -22.5t-14 -85.5t15 -86.5t46 -23.5t45 22.5t14 85.5zM297 492q0 63 -15 86.5t-45 23.5q-32 0 -46 -22.5t-14 -85.5t15 -86.5t46 -23.5
t45 22.5t14 85.5z" />
    <glyph glyph-name="ampersand" unicode="&#x26;" horiz-adv-x="722" 
d="M505 0l-50 57q-48 -34 -101 -51t-117 -17q-45 0 -83.5 10.5t-67 33.5t-44.5 59t-16 86q0 34 12.5 64t32.5 55t46.5 45.5t54.5 36.5l-6 7q-26 30 -44.5 63t-18.5 74q0 47 18 82.5t50.5 59t76.5 35t96 11.5q75 0 129.5 -17.5t104.5 -46.5l-79 -144q-39 22 -75.5 34.5
t-81.5 12.5q-23 0 -36 -8.5t-13 -21.5q0 -14 5.5 -24.5t17.5 -24.5l150 -174q14 23 29.5 50.5t32.5 59.5l146 -76q-26 -45 -51 -83.5t-51 -72.5l152 -175h-219zM261 277q-52 -36 -52 -75q0 -26 16 -42.5t60 -16.5q39 0 74 23z" />
    <glyph glyph-name="quotesingle" unicode="'" horiz-adv-x="343" 
d="M242 373h-141l-39 327h219z" />
    <glyph glyph-name="parenleft" unicode="(" horiz-adv-x="430" 
d="M245 -110q-38 42 -71.5 89t-59.5 98.5t-41 108t-15 117.5q0 64 15 121.5t41 109.5t59.5 99t71.5 89l129 -77q-28 -44 -49 -83.5t-34.5 -79t-20.5 -82.5t-7 -92q0 -51 7 -94.5t20.5 -84t34.5 -80t49 -82.5z" />
    <glyph glyph-name="parenright" unicode=")" horiz-adv-x="430" 
d="M372 309q0 -64 -15 -121.5t-41 -109.5t-60 -99t-71 -89l-129 77q28 43 49 83t34.5 79.5t20.5 82t7 92.5q0 51 -7 94.5t-20.5 84t-34.5 79.5t-49 83l129 77q37 -42 71 -89t60 -98.5t41 -108t15 -117.5z" />
    <glyph glyph-name="asterisk" unicode="*" horiz-adv-x="550" 
d="M449 276l-133 109l28 -169h-138l27 171l-133 -108l-70 119l170 60l-170 61l70 121l133 -110l-27 170h138l-28 -169l133 110l71 -120l-173 -62l173 -62z" />
    <glyph glyph-name="plus" unicode="+" horiz-adv-x="646" 
d="M414 258v-185h-182v185h-177v172h177v185h182v-185h177v-172h-177z" />
    <glyph glyph-name="comma" unicode="," horiz-adv-x="314" 
d="M180 -124h-123l14 333h205z" />
    <glyph glyph-name="hyphen" unicode="-" horiz-adv-x="484" 
d="M68 264v188h348v-188h-348z" />
    <glyph glyph-name="period" unicode="." horiz-adv-x="314" 
d="M272 104q0 -50 -32.5 -82.5t-82.5 -32.5t-82.5 32.5t-32.5 82.5t32.5 81.5t82.5 31.5t82.5 -31.5t32.5 -81.5z" />
    <glyph glyph-name="slash" unicode="/" horiz-adv-x="510" 
d="M174 -90h-190l352 880h190z" />
    <glyph glyph-name="zero" unicode="0" horiz-adv-x="716" 
d="M675 351q0 -87 -24 -154.5t-66.5 -113.5t-101 -70t-126.5 -24t-126 23.5t-100 69t-66 113t-24 154.5t24 154.5t66.5 113.5t101 70t126.5 24t126 -23.5t100 -69t66 -113t24 -154.5zM476 349q0 97 -31 146t-88 49t-87 -48t-30 -145t31 -146t88 -49t87 48t30 145z" />
    <glyph glyph-name="one" unicode="1" horiz-adv-x="421" 
d="M158 0v482h-118v123q34 2 58 8t41 17t28 28.5t19 41.5h162v-700h-190z" />
    <glyph glyph-name="two" unicode="2" horiz-adv-x="700" 
d="M53 0q2 88 23.5 155t59 118t90.5 88.5t119 66.5q28 12 44.5 21t25.5 17t12 15.5t3 18.5q0 23 -18 35.5t-60 12.5q-53 0 -104 -18t-104 -53l-89 143q67 43 138.5 67t161.5 24q131 0 198 -50.5t67 -146.5q0 -35 -7 -63t-25.5 -53t-51 -48t-82.5 -46q-53 -24 -87.5 -44
t-56.5 -37.5t-33 -33t-17 -31.5h365v-158h-572z" />
    <glyph glyph-name="three" unicode="3" horiz-adv-x="685" 
d="M640 222q0 -61 -21.5 -105t-61 -72.5t-96.5 -42t-128 -13.5q-90 0 -164 28.5t-131 78.5l100 126q43 -33 92 -53t107 -20q61 0 88 17.5t27 53.5q0 37 -22.5 52t-76.5 15h-101v151h90q46 0 63.5 12t17.5 47q0 28 -22.5 42.5t-74.5 14.5q-51 0 -92 -15.5t-82 -44.5l-92 126
q24 19 52.5 35.5t61.5 29t72 19.5t85 7q63 0 114.5 -10.5t88.5 -34.5t57 -62.5t20 -93.5q0 -29 -8 -50.5t-20.5 -38t-29.5 -28t-35 -20.5q24 -6 46.5 -17.5t39 -30t26.5 -44.5t10 -59z" />
    <glyph glyph-name="four" unicode="4" horiz-adv-x="741" 
d="M610 120v-120h-174v125h-395v142l377 433h192v-416h90v-164h-90zM439 504q-7 -11 -14.5 -21.5t-17.5 -23t-22.5 -28t-29.5 -36.5l-10 -12q-28 -34 -50 -58.5t-42 -43.5q26 2 60.5 2.5t70.5 0.5h52v69v36t0.5 42.5t1 41t1.5 31.5z" />
    <glyph glyph-name="five" unicode="5" horiz-adv-x="711" 
d="M659 244q0 -123 -82.5 -189t-232.5 -66q-91 0 -162.5 23t-136.5 62l79 145q51 -30 109.5 -49.5t115.5 -19.5q68 0 95.5 23.5t27.5 65.5q0 41 -24.5 61.5t-69.5 20.5t-74 -10.5t-55 -29.5l-166 56l24 363h510v-158h-353l-6 -97q29 14 63.5 22.5t87.5 8.5q57 0 103 -14.5
t78.5 -43t50.5 -72.5t18 -102z" />
    <glyph glyph-name="six" unicode="6" horiz-adv-x="696" 
d="M657 241q0 -59 -22 -106t-63.5 -79.5t-100.5 -49.5t-133 -17q-66 0 -121 18t-94 54.5t-61 91t-22 126.5q0 46 11 96t35.5 98t64.5 91.5t98 76t135.5 51.5t177.5 19v-159q-69 0 -122 -9.5t-93 -27.5t-68.5 -43t-48.5 -55q34 19 75.5 30t104.5 11q54 0 99.5 -13t78.5 -40
t51 -68t18 -96zM470 228q0 41 -31 64t-87 23q-65 0 -96 -23t-31 -65q0 -38 29.5 -61.5t93.5 -23.5q55 0 88.5 22t33.5 64z" />
    <glyph glyph-name="seven" unicode="7" horiz-adv-x="692" 
d="M628 560q-77 -71 -124.5 -135t-74 -130t-36 -138t-9.5 -157h-190q1 90 13.5 166.5t38 142.5t63 123.5t88.5 109.5h-348v158h579v-140v0z" />
    <glyph glyph-name="eight" unicode="8" horiz-adv-x="730" 
d="M684 218q0 -53 -22.5 -95.5t-64 -72t-101 -45.5t-132.5 -16q-74 0 -132.5 16t-100 45.5t-63.5 72t-22 95.5q0 34 10.5 59.5t27 44.5t35.5 31t36 19q-32 19 -55.5 51t-23.5 80q0 50 21.5 89t60 65.5t92 40t116.5 13.5t116 -13.5t91.5 -40t59.5 -65.5t21 -89q0 -48 -23 -78
t-56 -51q17 -7 36 -19.5t35.5 -31.5t27 -45t10.5 -60zM468 500q0 13 -5.5 25.5t-18 22.5t-32.5 16t-48 6q-29 0 -48.5 -6t-31.5 -16t-17 -22.5t-5 -25.5q0 -26 23.5 -46.5t80.5 -20.5t79.5 20.5t22.5 46.5zM498 220q0 36 -34 59.5t-100 23.5q-67 0 -99.5 -23.5t-32.5 -59.5
t34 -60t100 -24t99 24t33 60z" />
    <glyph glyph-name="nine" unicode="9" horiz-adv-x="696" 
d="M656 421q0 -46 -11 -96t-35.5 -98t-64.5 -91.5t-98 -76t-135.5 -51.5t-177.5 -19v159q69 0 122 9.5t93 27.5t68.5 43t48.5 55q-34 -19 -75.5 -30t-104.5 -11q-54 0 -99.5 13t-78.5 40t-51 67.5t-18 96.5q0 59 22 106t63 79.5t100.5 49.5t133.5 17q66 0 121 -18t94 -54.5
t61 -91t22 -126.5zM471 473q0 38 -29.5 61.5t-93.5 23.5q-55 0 -88.5 -22t-33.5 -64q0 -41 31 -64t87 -23q65 0 96 23t31 65z" />
    <glyph glyph-name="colon" unicode=":" horiz-adv-x="314" 
d="M269 426q0 -24 -8.5 -44.5t-23.5 -35.5t-35.5 -23.5t-44.5 -8.5t-44.5 8.5t-35.5 23.5t-23.5 35.5t-8.5 44.5q0 48 32 79t80 31t80 -31t32 -79zM269 101q0 -24 -8.5 -44.5t-23.5 -35.5t-35.5 -23.5t-44.5 -8.5q-48 0 -80 32t-32 80t32 79t80 31t80 -31t32 -79z" />
    <glyph glyph-name="semicolon" unicode=";" horiz-adv-x="314" 
d="M269 426q0 -24 -8.5 -44.5t-23.5 -35.5t-35.5 -23.5t-44.5 -8.5q-49 0 -80.5 32t-31.5 80q0 49 31.5 79.5t80.5 30.5q48 0 80 -30.5t32 -79.5zM166 -121h-119l13 325h200z" />
    <glyph glyph-name="less" unicode="&#x3c;" horiz-adv-x="515" 
d="M57 284v132l397 295v-234l-195 -125l195 -125v-238z" />
    <glyph glyph-name="equal" unicode="=" horiz-adv-x="646" 
d="M80 390v182h486v-182h-486zM80 116v182h486v-182h-486z" />
    <glyph glyph-name="greater" unicode="&#x3e;" horiz-adv-x="515" 
d="M61 -11v234l195 125l-195 125v238l397 -295v-132z" />
    <glyph glyph-name="question" unicode="?" horiz-adv-x="602" 
d="M571 519q0 -60 -30 -97t-94 -68q-43 -21 -61 -44.5t-18 -59.5h-179q0 32 6 58.5t21 49.5t40 42.5t63 37.5q32 15 47 28t15 34q0 23 -18.5 35.5t-59.5 12.5q-54 0 -101.5 -18.5t-91.5 -47.5l-89 143q63 40 132 63t153 23q61 0 110 -12t83.5 -36t53 -60t18.5 -84zM381 93
q0 -22 -8 -41t-21.5 -33t-33 -22t-41.5 -8q-23 0 -42 8t-32.5 22t-21.5 33t-8 41q0 45 29.5 73.5t74.5 28.5t74.5 -28.5t29.5 -73.5z" />
    <glyph glyph-name="at" unicode="@" horiz-adv-x="836" 
d="M779 360q0 -108 -39 -157.5t-108 -49.5q-43 0 -69.5 14.5t-43.5 34.5q-35 -23 -71.5 -35t-83.5 -12q-56 0 -90 33.5t-34 98.5q0 62 38.5 93.5t99.5 31.5q59 0 95 -19v27q0 25 -16 35t-48 10q-55 0 -113 -26l-33 80q35 17 75 26t90 9q81 0 117.5 -37.5t36.5 -104.5v-125
q0 -32 12.5 -49t42.5 -17q38 0 53 34t15 106q0 60 -21.5 111t-60 88.5t-91 58.5t-114.5 21q-66 0 -119 -22.5t-90.5 -61.5t-57.5 -92t-20 -113q0 -66 22 -119.5t60 -91.5t90.5 -59t114.5 -21q34 0 66.5 6.5t60.5 20.5l28 -65q-78 -33 -155 -33q-75 0 -141 27t-114.5 75
t-77 114.5t-28.5 144.5q0 75 27 141t75 114.5t114.5 77t144.5 28.5t144.5 -28.5t114.5 -76.5t75 -112t27 -134zM473 321q-31 14 -71 14q-56 0 -56 -46q0 -20 13.5 -33.5t42.5 -13.5q17 0 37.5 6t33.5 13v60z" />
    <glyph glyph-name="A" unicode="A" horiz-adv-x="762" 
d="M523 0l-38 123h-210l-38 -123h-208l254 700h196l254 -700h-210zM425 323q-9 34 -16 59t-12.5 45t-9.5 36.5t-7 34.5q-3 -18 -7 -35t-9.5 -37t-12.5 -45t-16 -58l-13 -46h116z" />
    <glyph glyph-name="B" unicode="B" horiz-adv-x="717" 
d="M670 226q0 -108 -65 -167t-198 -59h-336v700h338q130 0 187.5 -47t57.5 -135q0 -57 -24.5 -87t-59.5 -50q48 -20 74 -57.5t26 -97.5zM464 492q0 23 -13 39t-48 16h-146v-110h146q34 0 47.5 15t13.5 40zM480 222q0 31 -17 49t-52 18h-154v-136h153q36 0 53 19.5t17 49.5z
" />
    <glyph glyph-name="C" unicode="C" horiz-adv-x="686" 
d="M652 170q-18 -35 -42 -67.5t-58.5 -57.5t-81.5 -40.5t-109 -15.5q-78 0 -137.5 27.5t-100 75.5t-61 114t-20.5 144q0 84 23.5 151t66 113.5t101 71.5t129.5 25q64 0 110.5 -13.5t80 -40t56.5 -65t41 -87.5l-176 -69q-9 24 -19 44t-23 33.5t-30 21t-41 7.5
q-30 0 -52 -14.5t-36.5 -40t-21 -60.5t-6.5 -77q0 -40 6.5 -75t21 -61t36.5 -41t54 -15q23 0 40 6t31 18.5t27 31t27 43.5l164 -87v0z" />
    <glyph glyph-name="D" unicode="D" horiz-adv-x="722" 
d="M676 354q0 -99 -24 -166.5t-72 -109t-118.5 -60t-163.5 -18.5h-227v700h245q82 0 149 -17t113.5 -57.5t72 -106.5t25.5 -165zM477 351q0 48 -8.5 83t-27.5 57t-50 32.5t-76 10.5h-48v-368h42q45 0 77 9.5t52.5 31t29.5 57t9 87.5z" />
    <glyph glyph-name="E" unicode="E" horiz-adv-x="667" 
d="M71 0v700h536v-163h-344v-93h207v-161h-207v-120h351v-163h-543z" />
    <glyph glyph-name="F" unicode="F" horiz-adv-x="658" 
d="M264 535v-97h219v-164h-219v-274h-193v700h554v-165h-361z" />
    <glyph glyph-name="G" unicode="G" horiz-adv-x="721" 
d="M678 299q0 -151 -80 -230.5t-233 -79.5q-72 0 -131.5 24t-102 70.5t-66 113.5t-23.5 153q0 78 21 144t62.5 114t102 75.5t140.5 27.5q66 0 113 -12t80.5 -36.5t57 -61.5t42.5 -86l-176 -69q-17 45 -42.5 70.5t-75.5 25.5q-34 0 -57.5 -14.5t-37.5 -40t-20.5 -60.5
t-6.5 -77q0 -105 33.5 -151t101.5 -46q31 0 52 6.5t34.5 18.5t20.5 27.5t10 33.5h-127v145h308v-85v0z" />
    <glyph glyph-name="H" unicode="H" horiz-adv-x="756" 
d="M487 0v276h-218v-276h-198v700h198v-255h218v255h198v-700h-198z" />
    <glyph glyph-name="I" unicode="I" horiz-adv-x="350" 
d="M76 0v700h198v-700h-198z" />
    <glyph glyph-name="J" unicode="J" horiz-adv-x="690" 
d="M622 285q0 -69 -18 -123.5t-54.5 -93t-92 -59t-129.5 -20.5q-70 0 -121 17t-87.5 48.5t-60 76.5t-36.5 100l190 50q18 -60 43 -90.5t75 -30.5q47 0 70 29.5t23 80.5v430h198v-415v0z" />
    <glyph glyph-name="K" unicode="K" horiz-adv-x="734" 
d="M487 0l-146 298l-72 -87v-211h-198v700h198v-82q0 -45 -0.5 -90t-2.5 -83q11 17 27 40t34.5 48t37.5 50t36 46l56 71h236l-211 -247l235 -453h-230z" />
    <glyph glyph-name="L" unicode="L" horiz-adv-x="615" 
d="M71 0v700h196v-531h310v-169h-506z" />
    <glyph glyph-name="M" unicode="M" horiz-adv-x="844" 
d="M591 0v167q0 52 1 98.5t3 87.5q-8 -20 -18 -44t-21 -48.5t-22 -48t-20 -42.5l-92 -194l-92 194q-9 19 -20 42.5t-22 48t-21 48.5t-18 44q2 -41 3 -87.5t1 -98.5v-167h-182v700h178l86 -187q16 -34 30 -65.5t25.5 -59t20 -49.5t12.5 -37q9 30 32 84.5t56 126.5l86 187h176
v-700h-182z" />
    <glyph glyph-name="N" unicode="N" horiz-adv-x="756" 
d="M527 0l-167 231q-12 16 -28 39.5t-31.5 47t-29 44.5t-20.5 33q2 -12 3 -33.5t2 -47t1 -52.5v-48v-214h-186v700h171l154 -207q12 -16 28.5 -40t32.5 -48t29 -45t19 -32q-2 12 -3 33.5t-2 47t-1 52.5v48v191h186v-700h-158z" />
    <glyph glyph-name="O" unicode="O" horiz-adv-x="732" 
d="M690 351q0 -87 -24 -154.5t-67 -113.5t-103 -70t-131 -24t-130.5 23.5t-102.5 69t-66.5 113t-23.5 154.5t24 154.5t67 113.5t103 70t131 24t130.5 -23.5t102 -69t66.5 -113t24 -154.5zM489 349q0 95 -32.5 144t-91.5 49t-90.5 -48t-31.5 -143t32.5 -144t91.5 -49t90.5 48
t31.5 143z" />
    <glyph glyph-name="P" unicode="P" horiz-adv-x="679" 
d="M645 468q0 -67 -21 -113t-59 -74.5t-90.5 -41t-115.5 -12.5h-97v-227h-191v700h301q61 0 111.5 -12.5t86.5 -40t55.5 -72t19.5 -107.5zM452 465q0 35 -19 56t-66 21h-105v-157h102q48 0 68 20t20 60z" />
    <glyph glyph-name="Q" unicode="Q" horiz-adv-x="732" 
d="M690 351q0 -79 -24 -142.5t-66 -111.5l57 -74l-131 -86l-51 72q-54 -20 -110 -20q-71 0 -130.5 23.5t-102.5 69t-66.5 113t-23.5 154.5t24 154.5t67 113.5t103 70t131 24t130.5 -23.5t102 -69t66.5 -113t24 -154.5zM497 349q0 95 -36.5 144t-95.5 49t-90.5 -48
t-31.5 -143q0 -100 32 -151.5t92 -51.5h9l-60 79l129 84l43 -62q9 40 9 100z" />
    <glyph glyph-name="R" unicode="R" horiz-adv-x="716" 
d="M454 0l-114 236h-78v-236h-191v700h313q61 0 111.5 -12.5t86.5 -39.5t55.5 -70.5t19.5 -105.5q0 -79 -34 -129t-92 -76l140 -267h-217zM464 467q0 33 -19.5 54t-65.5 21h-117v-153h114q48 0 68 20t20 58z" />
    <glyph glyph-name="S" unicode="S" horiz-adv-x="679" 
d="M628 215q0 -60 -21.5 -103t-60 -70t-91.5 -40t-116 -13q-85 0 -162.5 24.5t-132.5 60.5l94 152q19 -13 44.5 -25.5t53 -22.5t55.5 -16t52 -6q52 0 71.5 10t19.5 35q0 10 -5.5 18t-19 15.5t-36.5 15t-58 15.5q-63 15 -110 32t-78 42.5t-46.5 61.5t-15.5 89q0 49 19.5 90
t55.5 70t87 45t114 16q90 0 156.5 -21t122.5 -60l-94 -152q-47 32 -94 49t-101 17q-44 0 -58 -12t-14 -31q0 -10 5.5 -17.5t18.5 -14t35 -13t56 -14.5q66 -16 114 -35t79 -45t46 -62t15 -85z" />
    <glyph glyph-name="T" unicode="T" horiz-adv-x="670" 
d="M432 531v-531h-194v531h-196v169h586v-169h-196z" />
    <glyph glyph-name="U" unicode="U" horiz-adv-x="748" 
d="M681 299q0 -83 -23.5 -142t-65 -96.5t-98 -54.5t-122.5 -17t-122 17t-96.5 54.5t-63.5 96.5t-23 142v401h198v-401q0 -65 26.5 -102t83.5 -37t82.5 37t25.5 102v401h198v-401v0z" />
    <glyph glyph-name="V" unicode="V" horiz-adv-x="736" 
d="M466 0h-196l-241 700h218l51 -188q9 -33 19.5 -73.5t20 -82t18 -78.5t13.5 -62q5 25 13.5 62t18 78t20 82t19.5 74l51 188h216z" />
    <glyph glyph-name="W" unicode="W" horiz-adv-x="926" 
d="M721 0h-179l-32 152q-9 40 -17 83.5t-14.5 83t-11 72t-5.5 51.5q-2 -19 -6 -51.5t-10.5 -72t-14.5 -83t-17 -83.5l-32 -152h-177l-167 700h200l19 -117q6 -37 12.5 -77.5t12 -80.5t10 -77.5t7.5 -68.5q3 31 8.5 68t12.5 76.5t15 80t16 78.5l24 118h178l24 -118
q8 -38 16 -78.5t15 -80t12.5 -76.5t8.5 -68q3 31 7.5 68.5t10 77.5t12 80.5t12.5 77.5l19 117h198z" />
    <glyph glyph-name="X" unicode="X" horiz-adv-x="732" 
d="M478 0l-47 81q-19 33 -36.5 66.5t-30.5 62.5q-12 -28 -30 -62t-38 -67l-47 -81h-220l229 354l-221 346h225l39 -68q19 -33 37.5 -66.5t29.5 -61.5q12 28 30.5 61.5t37.5 66.5l39 68h220l-221 -342l229 -358h-225z" />
    <glyph glyph-name="Y" unicode="Y" horiz-adv-x="746" 
d="M471 261v-261h-196v258l-259 442h224l54 -106q28 -55 49 -102.5t31 -78.5q10 31 31 78.5t49 102.5l54 106h222z" />
    <glyph glyph-name="Z" unicode="Z" horiz-adv-x="710" 
d="M66 0v139l205 250q16 20 35.5 42t38 43t35.5 39.5t29 31.5q-20 -1 -46 -1.5t-53.5 -1t-55.5 -0.5h-53h-115v158h552v-139l-205 -250q-17 -20 -36 -42t-37.5 -43t-35.5 -39.5t-29 -31.5q20 1 46 1.5t53.5 1t55.5 0.5h53h137v-158h-574z" />
    <glyph glyph-name="bracketleft" unicode="[" horiz-adv-x="463" 
d="M79 -110v810h305v-147h-124v-516h124v-147h-305z" />
    <glyph glyph-name="backslash" unicode="\" horiz-adv-x="510" 
d="M336 -90l-352 880h190l352 -880h-190z" />
    <glyph glyph-name="bracketright" unicode="]" horiz-adv-x="463" 
d="M79 -110v147h124v516h-124v147h305v-810h-305z" />
    <glyph glyph-name="asciicircum" unicode="^" horiz-adv-x="620" 
d="M407 362l-98 183l-98 -183h-186l205 338h160l205 -338h-188z" />
    <glyph glyph-name="underscore" unicode="_" horiz-adv-x="500" 
d="M0 -198v137h500v-137h-500z" />
    <glyph glyph-name="grave" unicode="`" horiz-adv-x="500" 
d="M248 595l-157 160h213l72 -160h-128z" />
    <glyph glyph-name="a" unicode="a" horiz-adv-x="558" 
d="M336 0v35q-26 -20 -59 -33t-69 -13q-77 0 -123.5 46t-46.5 135q0 42 14 74t39 53.5t59.5 32.5t76.5 11q36 0 61.5 -6t47.5 -16v26q0 35 -18.5 48.5t-55.5 13.5q-41 0 -74.5 -8.5t-71.5 -29.5l-47 119q48 23 102.5 35.5t123.5 12.5q110 0 160.5 -52t50.5 -143v-341h-170z
M336 214q-15 7 -33 11t-44 4q-56 0 -56 -56q0 -25 13.5 -41t42.5 -16q23 0 43.5 7.5t33.5 18.5v72z" />
    <glyph glyph-name="b" unicode="b" horiz-adv-x="572" 
d="M535 264q0 -141 -48 -208t-134 -67q-39 0 -67 14.5t-50 31.5v-35h-180v657l180 72v-241q27 21 54.5 34.5t69.5 13.5q37 0 69 -15t55.5 -48t37 -84.5t13.5 -124.5zM357 258q0 39 -3.5 64.5t-10.5 40t-18 20t-25 5.5q-20 0 -35 -7t-29 -18v-201q14 -11 29 -18t36 -7
q14 0 24.5 5t17.5 18.5t10.5 37t3.5 60.5z" />
    <glyph glyph-name="c" unicode="c" horiz-adv-x="520" 
d="M492 114q-23 -34 -45.5 -57.5t-48 -38.5t-54 -22t-63.5 -7q-116 0 -181 70.5t-65 204.5q0 60 15.5 110t46.5 86t78 56t110 20q37 0 67 -8.5t54 -24t44 -37.5t37 -50l-124 -94q-19 35 -35.5 51.5t-45.5 16.5q-35 0 -52 -33t-17 -96q0 -126 74 -126q26 0 46 15.5t45 52.5
l114 -89v0z" />
    <glyph glyph-name="d" unicode="d" horiz-adv-x="572" 
d="M335 0v37q-26 -21 -54 -34.5t-70 -13.5q-37 0 -68.5 15t-55 48t-37 84.5t-13.5 124.5q0 142 47.5 208.5t133.5 66.5q40 0 67.5 -14.5t49.5 -31.5v167l181 72v-729h-181zM335 363q-14 11 -28.5 18t-35.5 7q-14 0 -24.5 -5t-18 -18.5t-11 -37t-3.5 -60.5q0 -39 3.5 -64.5
t11 -40t18.5 -20t25 -5.5q20 0 34.5 7t28.5 18v201z" />
    <glyph glyph-name="e" unicode="e" horiz-adv-x="544" 
d="M509 246v-19.5t-1 -15.5h-308q5 -44 28.5 -64t60.5 -20q35 0 66 8.5t70 28.5l69 -115q-49 -29 -100.5 -44.5t-113.5 -15.5q-59 0 -105 20t-77 56t-47 86.5t-16 110.5q0 68 18 119t50 85.5t76 52t96 17.5q108 0 171 -72t63 -218zM350 323q-7 40 -23.5 60t-56.5 20
q-61 0 -70 -80h150v0z" />
    <glyph glyph-name="f" unicode="f" horiz-adv-x="383" 
d="M354 588q-24 11 -52 11q-20 0 -28 -7.5t-8 -25.5v-41h81v-141h-78v-384h-177v384h-56v141h56v51q0 81 35.5 115.5t112.5 34.5q35 0 65 -6t49 -16v-116v0z" />
    <glyph glyph-name="g" unicode="g" horiz-adv-x="572" 
d="M516 79q0 -68 -16 -115t-49.5 -78.5t-85.5 -50t-123 -28.5l-66 104q48 8 79 16.5t48.5 21t24.5 30.5t7 45v18q-26 -21 -54 -34.5t-70 -13.5q-37 0 -68.5 14.5t-55 46t-37 82.5t-13.5 124q0 142 47.5 208.5t133.5 66.5q40 0 67.5 -14.5t49.5 -31.5v35h181v-446v0zM335 363
q-14 11 -28.5 18t-35.5 7q-14 0 -24.5 -5t-18 -18.5t-11 -37t-3.5 -60.5q0 -39 3.5 -64.5t11 -40t18.5 -20t25 -5.5q20 0 34.5 7t28.5 18v201z" />
    <glyph glyph-name="h" unicode="h" horiz-adv-x="590" 
d="M357 0v298q0 51 -16 68.5t-44 17.5q-29 0 -45 -17t-16 -67v-300h-180v657l180 72v-239q25 19 55 32.5t77 13.5q87 0 128.5 -55.5t41.5 -159.5v-321h-181z" />
    <glyph glyph-name="i" unicode="i" horiz-adv-x="302" 
d="M256 652q0 -42 -29 -65.5t-76 -23.5q-45 0 -74 23.5t-29 65.5q0 38 29 62.5t74 24.5q47 0 76 -24.5t29 -62.5zM61 0v525h180v-525h-180z" />
    <glyph glyph-name="j" unicode="j" horiz-adv-x="302" 
d="M256 652q0 -42 -29 -65.5t-76 -23.5q-45 0 -74 23.5t-29 65.5q0 38 29 62.5t74 24.5q47 0 76 -24.5t29 -62.5zM241 50q0 -62 -13.5 -104.5t-42 -71t-73.5 -44.5t-107 -23l-60 124q33 4 55.5 12t36 20.5t19 31t5.5 45.5v485h180v-475v0z" />
    <glyph glyph-name="k" unicode="k" horiz-adv-x="574" 
d="M362 0l-79 219l-47 -60v-159h-180v657l180 72v-214q0 -13 -0.5 -33.5t-1 -42t-1 -41.5t-0.5 -32q5 9 15 24t21.5 31.5t23 32t19.5 26.5l35 45h205l-136 -158l140 -367h-194z" />
    <glyph glyph-name="l" unicode="l" horiz-adv-x="302" 
d="M61 0v657l180 72v-729h-180z" />
    <glyph glyph-name="m" unicode="m" horiz-adv-x="880" 
d="M647 0v298q0 51 -15 68.5t-42 17.5q-28 0 -43 -17t-15 -67v-300h-180v298q0 51 -15.5 68.5t-42.5 17.5q-28 0 -43 -17t-15 -67v-300h-180v525h180v-35q22 18 52 32t73 14q54 0 87 -16t58 -43q28 23 63.5 41t89.5 18q89 0 129 -55.5t40 -159.5v-321h-181z" />
    <glyph glyph-name="n" unicode="n" horiz-adv-x="590" 
d="M357 0v298q0 51 -16 68.5t-44 17.5q-29 0 -45 -17t-16 -67v-300h-180v525h180v-35q25 19 55 32.5t77 13.5q87 0 128.5 -55.5t41.5 -159.5v-321h-181z" />
    <glyph glyph-name="o" unicode="o" horiz-adv-x="569" 
d="M534 263q0 -68 -18.5 -119t-52 -85.5t-79.5 -52t-100 -17.5t-100 17.5t-79 52t-51.5 85.5t-18.5 119q0 69 18.5 120t51.5 85t79 51t100 17t100 -17t79.5 -51t52 -85t18.5 -120zM355 263q0 67 -18 97t-53 30t-53 -30t-18 -97q0 -128 71 -128t71 128z" />
    <glyph glyph-name="p" unicode="p" horiz-adv-x="572" 
d="M535 264q0 -141 -48 -208t-134 -67q-39 0 -67 14.5t-50 31.5v-156l-180 -72v718h180v-37q27 21 54.5 34.5t69.5 13.5q37 0 69 -15t55.5 -48t37 -84.5t13.5 -124.5zM357 258q0 39 -3.5 64.5t-10.5 40t-18 20t-25 5.5q-20 0 -35 -7t-29 -18v-201q14 -11 29 -18t36 -7
q14 0 24.5 5t17.5 18.5t10.5 37t3.5 60.5z" />
    <glyph glyph-name="q" unicode="q" horiz-adv-x="572" 
d="M335 -193v230q-26 -21 -54 -34.5t-70 -13.5q-37 0 -68.5 15t-55 48t-37 84.5t-13.5 124.5q0 142 47.5 208.5t133.5 66.5q40 0 67.5 -14.5t49.5 -31.5v35h181v-646zM335 363q-14 11 -28.5 18t-35.5 7q-14 0 -24.5 -5t-18 -18.5t-11 -37t-3.5 -60.5q0 -39 3.5 -64.5t11 -40
t18.5 -20t25 -5.5q20 0 34.5 7t28.5 18v201z" />
    <glyph glyph-name="r" unicode="r" horiz-adv-x="448" 
d="M391 327q-17 19 -37.5 31.5t-46.5 12.5q-33 0 -52 -18.5t-19 -66.5v-286h-180v525h180v-38q23 23 50 36t62 13q29 0 49 -6t36 -16z" />
    <glyph glyph-name="s" unicode="s" horiz-adv-x="523" 
d="M479 166q0 -91 -58 -134t-159 -43q-58 0 -113 11.5t-106 31.5l42 136q48 -21 97 -33.5t84 -12.5q26 0 37 6t11 18q0 13 -8 19.5t-34 13.5q-61 16 -102.5 31.5t-67 36t-37 48.5t-11.5 69q0 81 53 126.5t161 45.5q30 0 55 -2.5t49 -7t48 -12t50 -16.5l-40 -139
q-52 23 -92 33.5t-75 10.5q-26 0 -35 -5.5t-9 -17.5q0 -6 1.5 -10.5t7 -8.5t16 -8t27.5 -9q55 -15 94.5 -30t65 -35t37 -47t11.5 -66z" />
    <glyph glyph-name="t" unicode="t" horiz-adv-x="450" 
d="M378 17q-26 -13 -59 -20.5t-71 -7.5q-72 0 -105.5 38.5t-33.5 128.5v228h-80v141h80v133l175 71v-204h114v-141h-114v-190q0 -30 11 -41t34 -11q18 0 34.5 7t37.5 21z" />
    <glyph glyph-name="u" unicode="u" horiz-adv-x="590" 
d="M353 0v35q-24 -19 -54.5 -32.5t-76.5 -13.5q-87 0 -128.5 55.5t-41.5 159.5v321h181v-298q0 -51 16 -68.5t44 -17.5t44 17t16 67v300h181v-525h-181z" />
    <glyph glyph-name="v" unicode="v" horiz-adv-x="571" 
d="M374 0h-177l-182 525h191l47 -193q8 -33 17.5 -76t14.5 -81q5 38 15 81t18 76l48 193h190z" />
    <glyph glyph-name="w" unicode="w" horiz-adv-x="741" 
d="M576 0h-146l-22 107q-5 22 -10.5 53l-11 62t-10.5 58t-7 41q-3 -14 -7.5 -41t-10 -58t-11.5 -62t-11 -55l-22 -105h-142l-148 525h174l15 -78q4 -23 9 -53.5t10 -61.5t9 -58t6 -41q3 14 7.5 41t10.5 58l12 62t11 55l17 76h148l16 -76q5 -24 11 -55l12 -62t10.5 -58
t7.5 -41q2 14 6 41t9 58t10 61.5t10 53.5l14 78h172z" />
    <glyph glyph-name="x" unicode="x" horiz-adv-x="574" 
d="M364 0l-26 48q-13 23 -28 52.5t-27 57.5q-13 -28 -27.5 -57.5t-27.5 -52.5l-27 -48h-186l179 274l-159 251h196l6 -12l28.5 -57t25.5 -61q11 29 27.5 61.5t28.5 56.5l6 12h187l-161 -243l181 -282h-196z" />
    <glyph glyph-name="y" unicode="y" horiz-adv-x="590" 
d="M321 -185h-172l66 163l-200 547h191l50 -187q4 -17 10 -41t12 -50.5t11 -51.5t7 -44q3 19 8 44.5t11 51.5t11.5 51t10.5 42l49 185h189z" />
    <glyph glyph-name="z" unicode="z" horiz-adv-x="565" 
d="M52 0v125l115 125q16 18 34.5 37t36 37t32.5 33.5t26 25.5q-25 -1 -63.5 -2.5t-71.5 -1.5h-97v146h444v-125l-115 -125q-16 -18 -34.5 -37t-36 -37t-33 -33.5l-25.5 -25.5q25 1 63.5 2.5t71.5 1.5h109v-146h-456z" />
    <glyph glyph-name="braceleft" unicode="{" horiz-adv-x="510" 
d="M456 -110q-166 0 -241 53t-75 156v75q0 28 -17.5 38.5t-41.5 10.5h-34v150h34q24 0 41.5 10.5t17.5 38.5v74q0 103 75 156t241 53v-116q-36 -4 -59 -12.5t-35.5 -23t-17.5 -35.5t-5 -49v-24q0 -44 -8.5 -70.5t-25 -42t-39.5 -22.5t-53 -12q30 -5 53 -12.5t39.5 -22.5
t25 -42t8.5 -71v-24q0 -29 5 -49.5t17.5 -35t35.5 -23t59 -12.5v-116v0z" />
    <glyph glyph-name="bar" unicode="|" horiz-adv-x="324" 
d="M73 -185v985h178v-985h-178z" />
    <glyph glyph-name="braceright" unicode="}" horiz-adv-x="510" 
d="M429 222q-24 0 -41.5 -10.5t-17.5 -38.5v-74q0 -103 -75 -156t-241 -53v116q36 4 59 12.5t35.5 23t17.5 35t5 49.5v24q0 44 8.5 70.5t25 42t39.5 22.5t53 12q-30 5 -53 12.5t-39.5 22.5t-25 42t-8.5 71v24q0 28 -5 49t-17.5 35.5t-35.5 23t-59 12.5v116q166 0 241 -53
t75 -156v-75q0 -28 17.5 -38.5t41.5 -10.5h34v-150h-34z" />
    <glyph glyph-name="asciitilde" unicode="~" horiz-adv-x="582" 
d="M537 437q-20 -48 -38.5 -81.5t-37 -54.5t-39 -30t-44.5 -9q-15 0 -26 2t-20.5 6t-19.5 10t-24 14q-34 20 -48.5 27.5t-24.5 7.5q-8 0 -13.5 -2.5t-12 -10t-15 -21.5t-20.5 -38l-109 48q20 48 38.5 81.5t37 54.5t39 30t44.5 9q15 0 26 -2t20.5 -6t19.5 -10t24 -14
q34 -20 48.5 -27.5t24.5 -7.5q7 0 13 2t12.5 9.5t15 22t20.5 38.5l109 -48v0z" />
    <glyph glyph-name="Adieresis" unicode="&#xc4;" horiz-adv-x="762" 
d="M523 0l-38 123h-210l-38 -123h-208l254 700h196l254 -700h-210zM425 323q-9 34 -16 59t-12.5 45t-9.5 36.5t-7 34.5q-3 -18 -7 -35t-9.5 -37t-12.5 -45t-16 -58l-13 -46h116zM590 836q0 -17 -7.5 -32.5t-19.5 -27.5t-28 -19t-33 -7q-18 0 -34.5 7t-28.5 19t-19.5 27.5
t-7.5 32.5q0 18 7.5 34t19.5 28t28.5 19t34.5 7q17 0 33 -7t28 -19t19.5 -28t7.5 -34zM352 836q0 -17 -7.5 -32.5t-19.5 -27.5t-28 -19t-34 -7t-34 7t-28 19t-19.5 27.5t-7.5 32.5q0 18 7.5 34t19.5 28t28 19t34 7t34 -7t28 -19t19.5 -28t7.5 -34z" />
    <glyph glyph-name="Aring" unicode="&#xc5;" horiz-adv-x="762" 
d="M523 0l-38 123h-210l-38 -123h-208l238 657q-13 17 -20.5 38.5t-7.5 45.5q0 30 11 55t30.5 44t45 29.5t55.5 10.5t55.5 -10.5t45 -29.5t30.5 -44t11 -55q0 -48 -28 -84l238 -657h-210zM436 741q0 27 -14.5 43.5t-40.5 16.5t-40.5 -16.5t-14.5 -43.5t14.5 -43t40.5 -16
t40.5 16t14.5 43zM425 323q-9 34 -16 59t-12.5 45t-9.5 36.5t-7 34.5q-3 -18 -7 -35t-9.5 -37t-12.5 -45t-16 -58l-13 -46h116z" />
    <glyph glyph-name="Ccedilla" unicode="&#xc7;" horiz-adv-x="686" 
d="M652 170q-17 -33 -40.5 -65t-56.5 -57t-77.5 -41t-102.5 -18l-9 -31q8 4 19 6.5t23 2.5q38 0 58 -20t20 -53q0 -41 -28.5 -64t-82.5 -23q-43 0 -79.5 10.5t-67.5 25.5l19 46q28 -13 53.5 -18.5t47.5 -5.5q21 0 33.5 6.5t12.5 20.5q0 23 -22 23q-11 0 -19.5 -4t-17.5 -10
l-38 26l18 65q-67 8 -118 38t-85.5 77t-52 109t-17.5 134q0 84 23.5 151t66 113.5t101 71.5t129.5 25q64 0 110.5 -13.5t80 -40t56.5 -65t41 -87.5l-176 -69q-9 24 -19 44t-23 33.5t-30 21t-41 7.5q-30 0 -52 -14.5t-36.5 -40t-21 -60.5t-6.5 -77q0 -40 6.5 -75t21 -61
t36.5 -41t54 -15q23 0 40 6t31 18.5t27 31t27 43.5l164 -87v0z" />
    <glyph glyph-name="Eacute" unicode="&#xc9;" horiz-adv-x="667" 
d="M71 0v700h536v-163h-344v-93h207v-161h-207v-120h351v-163h-543zM382 745h-128l72 160h213z" />
    <glyph glyph-name="Ntilde" unicode="&#xd1;" horiz-adv-x="756" 
d="M527 0l-167 231q-12 16 -28 39.5t-31.5 47t-29 44.5t-20.5 33q2 -12 3 -33.5t2 -47t1 -52.5v-48v-214h-186v700h171l154 -207q12 -16 28.5 -40t32.5 -48t29 -45t19 -32q-2 12 -3 33.5t-2 47t-1 52.5v48v191h186v-700h-158zM592 896q0 -33 -9 -62t-26 -50t-41.5 -33
t-54.5 -12q-28 0 -47 5.5t-42 19.5q-22 13 -36 21t-25 8q-17 0 -25 -12.5t-12 -38.5h-103q0 33 9 62t26 50t41.5 33t54.5 12q28 0 47 -5.5t42 -19.5q22 -13 36 -21t25 -8q31 0 37 51h103v0z" />
    <glyph glyph-name="Odieresis" unicode="&#xd6;" horiz-adv-x="732" 
d="M690 351q0 -87 -24 -154.5t-67 -113.5t-103 -70t-131 -24t-130.5 23.5t-102.5 69t-66.5 113t-23.5 154.5t24 154.5t67 113.5t103 70t131 24t130.5 -23.5t102 -69t66.5 -113t24 -154.5zM489 349q0 95 -32.5 144t-91.5 49t-90.5 -48t-31.5 -143t32.5 -144t91.5 -49t90.5 48
t31.5 143zM574 836q0 -17 -7.5 -32.5t-19.5 -27.5t-28 -19t-33 -7q-18 0 -34.5 7t-28.5 19t-19.5 27.5t-7.5 32.5q0 18 7.5 34t19.5 28t28.5 19t34.5 7q17 0 33 -7t28 -19t19.5 -28t7.5 -34zM336 836q0 -17 -7.5 -32.5t-19.5 -27.5t-28 -19t-34 -7t-34 7t-28 19t-19.5 27.5
t-7.5 32.5q0 18 7.5 34t19.5 28t28 19t34 7t34 -7t28 -19t19.5 -28t7.5 -34z" />
    <glyph glyph-name="Udieresis" unicode="&#xdc;" horiz-adv-x="748" 
d="M681 299q0 -83 -23.5 -142t-65 -96.5t-98 -54.5t-122.5 -17t-122 17t-96.5 54.5t-63.5 96.5t-23 142v401h198v-401q0 -65 26.5 -102t83.5 -37t82.5 37t25.5 102v401h198v-401v0zM582 836q0 -17 -7.5 -32.5t-19.5 -27.5t-28 -19t-33 -7q-18 0 -34.5 7t-28.5 19t-19.5 27.5
t-7.5 32.5q0 18 7.5 34t19.5 28t28.5 19t34.5 7q17 0 33 -7t28 -19t19.5 -28t7.5 -34zM344 836q0 -17 -7.5 -32.5t-19.5 -27.5t-28 -19t-34 -7t-34 7t-28 19t-19.5 27.5t-7.5 32.5q0 18 7.5 34t19.5 28t28 19t34 7t34 -7t28 -19t19.5 -28t7.5 -34z" />
    <glyph glyph-name="aacute" unicode="&#xe1;" horiz-adv-x="558" 
d="M336 0v35q-26 -20 -59 -33t-69 -13q-77 0 -123.5 46t-46.5 135q0 42 14 74t39 53.5t59.5 32.5t76.5 11q36 0 61.5 -6t47.5 -16v26q0 35 -18.5 48.5t-55.5 13.5q-41 0 -74.5 -8.5t-71.5 -29.5l-47 119q48 23 102.5 35.5t123.5 12.5q110 0 160.5 -52t50.5 -143v-341h-170z
M336 214q-15 7 -33 11t-44 4q-56 0 -56 -56q0 -25 13.5 -41t42.5 -16q23 0 43.5 7.5t33.5 18.5v72zM318 595h-128l72 160h213z" />
    <glyph glyph-name="agrave" unicode="&#xe0;" horiz-adv-x="558" 
d="M336 0v35q-26 -20 -59 -33t-69 -13q-77 0 -123.5 46t-46.5 135q0 42 14 74t39 53.5t59.5 32.5t76.5 11q36 0 61.5 -6t47.5 -16v26q0 35 -18.5 48.5t-55.5 13.5q-41 0 -74.5 -8.5t-71.5 -29.5l-47 119q48 23 102.5 35.5t123.5 12.5q110 0 160.5 -52t50.5 -143v-341h-170z
M336 214q-15 7 -33 11t-44 4q-56 0 -56 -56q0 -25 13.5 -41t42.5 -16q23 0 43.5 7.5t33.5 18.5v72zM249 595l-157 160h213l72 -160h-128z" />
    <glyph glyph-name="acircumflex" unicode="&#xe2;" horiz-adv-x="558" 
d="M336 0v35q-26 -20 -59 -33t-69 -13q-77 0 -123.5 46t-46.5 135q0 42 14 74t39 53.5t59.5 32.5t76.5 11q36 0 61.5 -6t47.5 -16v26q0 35 -18.5 48.5t-55.5 13.5q-41 0 -74.5 -8.5t-71.5 -29.5l-47 119q48 23 102.5 35.5t123.5 12.5q110 0 160.5 -52t50.5 -143v-341h-170z
M336 214q-15 7 -33 11t-44 4q-56 0 -56 -56q0 -25 13.5 -41t42.5 -16q23 0 43.5 7.5t33.5 18.5v72zM362 591l-83 64l-83 -64h-118l131 160h142l131 -160h-120z" />
    <glyph glyph-name="adieresis" unicode="&#xe4;" horiz-adv-x="558" 
d="M336 0v35q-26 -20 -59 -33t-69 -13q-77 0 -123.5 46t-46.5 135q0 42 14 74t39 53.5t59.5 32.5t76.5 11q36 0 61.5 -6t47.5 -16v26q0 35 -18.5 48.5t-55.5 13.5q-41 0 -74.5 -8.5t-71.5 -29.5l-47 119q48 23 102.5 35.5t123.5 12.5q110 0 160.5 -52t50.5 -143v-341h-170z
M336 214q-15 7 -33 11t-44 4q-56 0 -56 -56q0 -25 13.5 -41t42.5 -16q23 0 43.5 7.5t33.5 18.5v72zM486 682q0 -17 -7.5 -32.5t-19.5 -27.5t-28 -19t-33 -7q-18 0 -34.5 7t-28.5 19t-19.5 27.5t-7.5 32.5q0 18 7.5 34t19.5 28t28.5 19t34.5 7q17 0 33 -7t28 -19t19.5 -28
t7.5 -34zM248 682q0 -17 -7.5 -32.5t-19.5 -27.5t-28 -19t-34 -7t-34 7t-28 19t-19.5 27.5t-7.5 32.5q0 18 7.5 34t19.5 28t28 19t34 7t34 -7t28 -19t19.5 -28t7.5 -34z" />
    <glyph glyph-name="atilde" unicode="&#xe3;" horiz-adv-x="558" 
d="M336 0v35q-26 -20 -59 -33t-69 -13q-77 0 -123.5 46t-46.5 135q0 42 14 74t39 53.5t59.5 32.5t76.5 11q36 0 61.5 -6t47.5 -16v26q0 35 -18.5 48.5t-55.5 13.5q-41 0 -74.5 -8.5t-71.5 -29.5l-47 119q48 23 102.5 35.5t123.5 12.5q110 0 160.5 -52t50.5 -143v-341h-170z
M336 214q-15 7 -33 11t-44 4q-56 0 -56 -56q0 -25 13.5 -41t42.5 -16q23 0 43.5 7.5t33.5 18.5v72zM494 749q0 -33 -9 -62t-26 -50t-41.5 -33t-54.5 -12q-28 0 -47 5.5t-42 19.5q-22 13 -36 21t-25 8q-17 0 -25 -12.5t-12 -38.5h-103q0 33 9 62t26 50t41.5 33t54.5 12
q28 0 47 -5.5t42 -19.5q22 -13 36 -21t25 -8q31 0 37 51h103v0z" />
    <glyph glyph-name="aring" unicode="&#xe5;" horiz-adv-x="558" 
d="M336 0v35q-26 -20 -59 -33t-69 -13q-77 0 -123.5 46t-46.5 135q0 42 14 74t39 53.5t59.5 32.5t76.5 11q36 0 61.5 -6t47.5 -16v26q0 35 -18.5 48.5t-55.5 13.5q-41 0 -74.5 -8.5t-71.5 -29.5l-47 119q48 23 102.5 35.5t123.5 12.5q110 0 160.5 -52t50.5 -143v-341h-170z
M336 214q-15 7 -33 11t-44 4q-56 0 -56 -56q0 -25 13.5 -41t42.5 -16q23 0 43.5 7.5t33.5 18.5v72zM423 733q0 -30 -11 -55t-30.5 -43.5t-45 -29t-55.5 -10.5t-55.5 10.5t-45 29t-30.5 43.5t-11 55t11 55t30.5 44t45 29.5t55.5 10.5t55.5 -10.5t45 -29.5t30.5 -44t11 -55z
M336 733q0 27 -14.5 43.5t-40.5 16.5t-40.5 -16.5t-14.5 -43.5t14.5 -43t40.5 -16t40.5 16t14.5 43z" />
    <glyph glyph-name="ccedilla" unicode="&#xe7;" horiz-adv-x="520" 
d="M492 114q-44 -66 -90.5 -95t-113.5 -30l-9 -31q8 4 19 6.5t23 2.5q38 0 58 -20t20 -53q0 -41 -28.5 -64t-82.5 -23q-43 0 -79.5 10.5t-67.5 25.5l19 46q28 -13 53.5 -18.5t47.5 -5.5q21 0 33.5 6.5t12.5 20.5q0 23 -22 23q-11 0 -19.5 -4t-17.5 -10l-38 26l18 66
q-92 16 -142.5 84.5t-50.5 186.5q0 60 15.5 110t46.5 86t78 56t110 20q37 0 67 -8.5t54 -24t44 -37.5t37 -50l-124 -94q-19 35 -35.5 51.5t-45.5 16.5q-35 0 -52 -33t-17 -96q0 -126 74 -126q26 0 46 15.5t45 52.5l114 -89v0z" />
    <glyph glyph-name="eacute" unicode="&#xe9;" horiz-adv-x="544" 
d="M509 246v-19.5t-1 -15.5h-308q5 -44 28.5 -64t60.5 -20q35 0 66 8.5t70 28.5l69 -115q-49 -29 -100.5 -44.5t-113.5 -15.5q-59 0 -105 20t-77 56t-47 86.5t-16 110.5q0 68 18 119t50 85.5t76 52t96 17.5q108 0 171 -72t63 -218zM350 323q-7 40 -23.5 60t-56.5 20
q-61 0 -70 -80h150v0zM328 595h-128l72 160h213z" />
    <glyph glyph-name="egrave" unicode="&#xe8;" horiz-adv-x="544" 
d="M509 246v-19.5t-1 -15.5h-308q5 -44 28.5 -64t60.5 -20q35 0 66 8.5t70 28.5l69 -115q-49 -29 -100.5 -44.5t-113.5 -15.5q-59 0 -105 20t-77 56t-47 86.5t-16 110.5q0 68 18 119t50 85.5t76 52t96 17.5q108 0 171 -72t63 -218zM350 323q-7 40 -23.5 60t-56.5 20
q-61 0 -70 -80h150v0zM225 595l-157 160h213l72 -160h-128z" />
    <glyph glyph-name="ecircumflex" unicode="&#xea;" horiz-adv-x="544" 
d="M509 246v-19.5t-1 -15.5h-308q5 -44 28.5 -64t60.5 -20q35 0 66 8.5t70 28.5l69 -115q-49 -29 -100.5 -44.5t-113.5 -15.5q-59 0 -105 20t-77 56t-47 86.5t-16 110.5q0 68 18 119t50 85.5t76 52t96 17.5q108 0 171 -72t63 -218zM350 323q-7 40 -23.5 60t-56.5 20
q-61 0 -70 -80h150v0zM358 586l-83 64l-83 -64h-118l131 160h142l131 -160h-120z" />
    <glyph glyph-name="edieresis" unicode="&#xeb;" horiz-adv-x="544" 
d="M509 246v-19.5t-1 -15.5h-308q5 -44 28.5 -64t60.5 -20q35 0 66 8.5t70 28.5l69 -115q-49 -29 -100.5 -44.5t-113.5 -15.5q-59 0 -105 20t-77 56t-47 86.5t-16 110.5q0 68 18 119t50 85.5t76 52t96 17.5q108 0 171 -72t63 -218zM350 323q-7 40 -23.5 60t-56.5 20
q-61 0 -70 -80h150v0zM485 682q0 -17 -7.5 -32.5t-19.5 -27.5t-28 -19t-33 -7q-18 0 -34.5 7t-28.5 19t-19.5 27.5t-7.5 32.5q0 18 7.5 34t19.5 28t28.5 19t34.5 7q17 0 33 -7t28 -19t19.5 -28t7.5 -34zM247 682q0 -17 -7.5 -32.5t-19.5 -27.5t-28 -19t-34 -7t-34 7t-28 19
t-19.5 27.5t-7.5 32.5q0 18 7.5 34t19.5 28t28 19t34 7t34 -7t28 -19t19.5 -28t7.5 -34z" />
    <glyph glyph-name="iacute" unicode="&#xed;" horiz-adv-x="302" 
d="M61 0v525h180v-525h-180zM202 595h-128l72 160h213z" />
    <glyph glyph-name="igrave" unicode="&#xec;" horiz-adv-x="302" 
d="M61 0v525h180v-525h-180zM106 595l-157 160h213l72 -160h-128z" />
    <glyph glyph-name="icircumflex" unicode="&#xee;" horiz-adv-x="302" 
d="M61 0v525h180v-525h-180zM234 581l-83 64l-83 -64h-118l131 160h142l131 -160h-120z" />
    <glyph glyph-name="idieresis" unicode="&#xef;" horiz-adv-x="302" 
d="M61 0v525h180v-525h-180zM360 677q0 -17 -7.5 -32.5t-19.5 -27.5t-28 -19t-33 -7q-18 0 -34.5 7t-28.5 19t-19.5 27.5t-7.5 32.5q0 18 7.5 34t19.5 28t28.5 19t34.5 7q17 0 33 -7t28 -19t19.5 -28t7.5 -34zM122 677q0 -17 -7.5 -32.5t-19.5 -27.5t-28 -19t-34 -7t-34 7
t-28 19t-19.5 27.5t-7.5 32.5q0 18 7.5 34t19.5 28t28 19t34 7t34 -7t28 -19t19.5 -28t7.5 -34z" />
    <glyph glyph-name="ntilde" unicode="&#xf1;" horiz-adv-x="590" 
d="M357 0v298q0 51 -16 68.5t-44 17.5q-29 0 -45 -17t-16 -67v-300h-180v525h180v-35q25 19 55 32.5t77 13.5q87 0 128.5 -55.5t41.5 -159.5v-321h-181zM515 749q0 -33 -9 -62t-26 -50t-41.5 -33t-54.5 -12q-28 0 -47 5.5t-42 19.5q-22 13 -36 21t-25 8q-17 0 -25 -12.5
t-12 -38.5h-103q0 33 9 62t26 50t41.5 33t54.5 12q28 0 47 -5.5t42 -19.5q22 -13 36 -21t25 -8q31 0 37 51h103v0z" />
    <glyph glyph-name="oacute" unicode="&#xf3;" horiz-adv-x="569" 
d="M534 263q0 -68 -18.5 -119t-52 -85.5t-79.5 -52t-100 -17.5t-100 17.5t-79 52t-51.5 85.5t-18.5 119q0 69 18.5 120t51.5 85t79 51t100 17t100 -17t79.5 -51t52 -85t18.5 -120zM355 263q0 67 -18 97t-53 30t-53 -30t-18 -97q0 -128 71 -128t71 128zM339 595h-128l72 160
h213z" />
    <glyph glyph-name="ograve" unicode="&#xf2;" horiz-adv-x="569" 
d="M534 263q0 -68 -18.5 -119t-52 -85.5t-79.5 -52t-100 -17.5t-100 17.5t-79 52t-51.5 85.5t-18.5 119q0 69 18.5 120t51.5 85t79 51t100 17t100 -17t79.5 -51t52 -85t18.5 -120zM355 263q0 67 -18 97t-53 30t-53 -30t-18 -97q0 -128 71 -128t71 128zM226 595l-157 160h213
l72 -160h-128z" />
    <glyph glyph-name="ocircumflex" unicode="&#xf4;" horiz-adv-x="569" 
d="M534 263q0 -68 -18.5 -119t-52 -85.5t-79.5 -52t-100 -17.5t-100 17.5t-79 52t-51.5 85.5t-18.5 119q0 69 18.5 120t51.5 85t79 51t100 17t100 -17t79.5 -51t52 -85t18.5 -120zM355 263q0 67 -18 97t-53 30t-53 -30t-18 -97q0 -128 71 -128t71 128zM366 586l-83 64
l-83 -64h-118l131 160h142l131 -160h-120z" />
    <glyph glyph-name="odieresis" unicode="&#xf6;" horiz-adv-x="569" 
d="M534 263q0 -68 -18.5 -119t-52 -85.5t-79.5 -52t-100 -17.5t-100 17.5t-79 52t-51.5 85.5t-18.5 119q0 69 18.5 120t51.5 85t79 51t100 17t100 -17t79.5 -51t52 -85t18.5 -120zM355 263q0 67 -18 97t-53 30t-53 -30t-18 -97q0 -128 71 -128t71 128zM492 677
q0 -17 -7.5 -32.5t-19.5 -27.5t-28 -19t-33 -7q-18 0 -34.5 7t-28.5 19t-19.5 27.5t-7.5 32.5q0 18 7.5 34t19.5 28t28.5 19t34.5 7q17 0 33 -7t28 -19t19.5 -28t7.5 -34zM254 677q0 -17 -7.5 -32.5t-19.5 -27.5t-28 -19t-34 -7t-34 7t-28 19t-19.5 27.5t-7.5 32.5
q0 18 7.5 34t19.5 28t28 19t34 7t34 -7t28 -19t19.5 -28t7.5 -34z" />
    <glyph glyph-name="otilde" unicode="&#xf5;" horiz-adv-x="569" 
d="M534 263q0 -68 -18.5 -119t-52 -85.5t-79.5 -52t-100 -17.5t-100 17.5t-79 52t-51.5 85.5t-18.5 119q0 69 18.5 120t51.5 85t79 51t100 17t100 -17t79.5 -51t52 -85t18.5 -120zM355 263q0 67 -18 97t-53 30t-53 -30t-18 -97q0 -128 71 -128t71 128zM495 749q0 -33 -9 -62
t-26 -50t-41.5 -33t-54.5 -12q-28 0 -47 5.5t-42 19.5q-22 13 -36 21t-25 8q-17 0 -25 -12.5t-12 -38.5h-103q0 33 9 62t26 50t41.5 33t54.5 12q28 0 47 -5.5t42 -19.5q22 -13 36 -21t25 -8q31 0 37 51h103v0z" />
    <glyph glyph-name="uacute" unicode="&#xfa;" horiz-adv-x="590" 
d="M353 0v35q-24 -19 -54.5 -32.5t-76.5 -13.5q-87 0 -128.5 55.5t-41.5 159.5v321h181v-298q0 -51 16 -68.5t44 -17.5t44 17t16 67v300h181v-525h-181zM346 595h-128l72 160h213z" />
    <glyph glyph-name="ugrave" unicode="&#xf9;" horiz-adv-x="590" 
d="M353 0v35q-24 -19 -54.5 -32.5t-76.5 -13.5q-87 0 -128.5 55.5t-41.5 159.5v321h181v-298q0 -51 16 -68.5t44 -17.5t44 17t16 67v300h181v-525h-181zM243 595l-157 160h213l72 -160h-128z" />
    <glyph glyph-name="ucircumflex" unicode="&#xfb;" horiz-adv-x="590" 
d="M353 0v35q-24 -19 -54.5 -32.5t-76.5 -13.5q-87 0 -128.5 55.5t-41.5 159.5v321h181v-298q0 -51 16 -68.5t44 -17.5t44 17t16 67v300h181v-525h-181zM378 595l-83 64l-83 -64h-118l131 160h142l131 -160h-120z" />
    <glyph glyph-name="udieresis" unicode="&#xfc;" horiz-adv-x="590" 
d="M353 0v35q-24 -19 -54.5 -32.5t-76.5 -13.5q-87 0 -128.5 55.5t-41.5 159.5v321h181v-298q0 -51 16 -68.5t44 -17.5t44 17t16 67v300h181v-525h-181zM504 686q0 -17 -7.5 -32.5t-19.5 -27.5t-28 -19t-33 -7q-18 0 -34.5 7t-28.5 19t-19.5 27.5t-7.5 32.5q0 18 7.5 34
t19.5 28t28.5 19t34.5 7q17 0 33 -7t28 -19t19.5 -28t7.5 -34zM266 686q0 -17 -7.5 -32.5t-19.5 -27.5t-28 -19t-34 -7t-34 7t-28 19t-19.5 27.5t-7.5 32.5q0 18 7.5 34t19.5 28t28 19t34 7t34 -7t28 -19t19.5 -28t7.5 -34z" />
    <glyph glyph-name="dagger" unicode="&#x2020;" horiz-adv-x="594" 
d="M386 349v-449h-178v449h-153v165h153v186h178v-186h153v-165h-153z" />
    <glyph glyph-name="degree" unicode="&#xb0;" horiz-adv-x="526" 
d="M481 494q0 -48 -17 -88t-46 -69.5t-69 -45.5t-86 -16t-85.5 16t-69 45.5t-46.5 69.5t-17 88q0 47 17 86.5t46.5 68.5t69 45.5t85.5 16.5t86 -16.5t69 -45.5t46 -68.5t17 -86.5zM353 494q0 45 -25 70.5t-65 25.5q-39 0 -64.5 -25.5t-25.5 -70.5q0 -47 25.5 -72.5
t64.5 -25.5q40 0 65 25.5t25 72.5z" />
    <glyph glyph-name="cent" unicode="&#xa2;" horiz-adv-x="520" 
d="M492 207q-32 -47 -63.5 -74.5t-69.5 -39.5v-104h-174v108q-72 26 -111 91.5t-39 168.5q0 94 37 161.5t113 94.5v98h174v-92q42 -14 72.5 -42t55.5 -68l-124 -94q-19 35 -35.5 51.5t-45.5 16.5q-35 0 -52 -33t-17 -96q0 -126 74 -126q26 0 46 15.5t45 52.5l114 -89v0z" />
    <glyph glyph-name="sterling" unicode="&#xa3;" horiz-adv-x="694" 
d="M567 493q-48 32 -94.5 46t-97.5 14q-42 0 -60.5 -15t-18.5 -38q0 -13 3.5 -23.5t11.5 -22.5q9 -15 17 -30t14 -30h153v-135h-144q-7 -35 -20.5 -62t-31.5 -49h334v-148h-552v117q38 27 61 59.5t31 82.5h-92v135h76q-5 10 -10 19t-11 20q-13 22 -21.5 46.5t-8.5 52.5
q0 84 67.5 131.5t203.5 47.5q74 0 143 -19t129 -58z" />
    <glyph glyph-name="section" unicode="&#xa7;" horiz-adv-x="722" 
d="M667 261q0 -57 -27.5 -98t-74.5 -73q9 -18 12.5 -38t3.5 -43q0 -36 -13.5 -68t-41 -55t-69.5 -36.5t-100 -13.5q-32 0 -65.5 4.5t-64.5 13t-58 19.5t-47 24l59 136q40 -23 88 -37.5t97 -14.5q29 0 38.5 6t9.5 16q0 7 -2 12.5t-10.5 11.5t-25 13.5t-44.5 16.5
q-86 28 -139.5 50t-84.5 47t-42 56t-11 76q0 57 27.5 98t73.5 73q-8 18 -11.5 38t-3.5 43q0 36 13.5 68t41 55t69.5 36.5t100 13.5q32 0 65.5 -5t64.5 -13t58 -19t47 -24l-59 -136q-40 23 -88 37.5t-97 14.5q-29 0 -38.5 -6t-9.5 -16q0 -7 2 -12.5t10.5 -11.5t24.5 -13.5
t45 -16.5q85 -28 139 -50t85 -47t42 -56t11 -76zM490 246q0 13 -4.5 23t-19 19.5t-40.5 19.5t-68 24q-26 8 -48.5 16.5t-41.5 17.5q-18 -14 -27 -29t-9 -36q0 -13 4.5 -23t19 -19.5t40.5 -20t68 -23.5q26 -8 48.5 -16.5t41.5 -17.5q18 14 27 29t9 36z" />
    <glyph glyph-name="bullet" unicode="&#x2022;" horiz-adv-x="589" 
d="M524 366q0 -48 -17.5 -90t-48.5 -73t-73 -48.5t-91 -17.5q-48 0 -90 17.5t-73 48.5t-48.5 73t-17.5 90t17.5 90.5t48.5 73.5t73 49t90 18q49 0 91 -18t73 -49t48.5 -73.5t17.5 -90.5z" />
    <glyph glyph-name="paragraph" unicode="&#xb6;" horiz-adv-x="724" 
d="M506 -185v768h-59v-768h-139v446h-44q-46 0 -87.5 14.5t-72.5 42.5t-49 69t-18 94q0 52 18.5 93t49.5 69t72 42.5t87 14.5h381v-885h-139z" />
    <glyph glyph-name="germandbls" unicode="&#xdf;" horiz-adv-x="601" 
d="M566 234q0 -116 -65.5 -175t-195.5 -59h-15v141h15q84 0 84 90q0 50 -24 70t-69 20h-6v136h6q26 0 36.5 14t10.5 40q0 36 -13 52.5t-42 16.5t-40.5 -20.5t-11.5 -63.5v-617l-180 -72v684q0 61 16.5 105.5t47 73t73 42.5t95.5 14q47 0 88 -11t71 -33.5t47.5 -57.5
t17.5 -83q0 -30 -7 -51.5t-18.5 -38t-26.5 -28.5t-32 -21q25 -6 50 -17.5t44.5 -32t31.5 -49.5t12 -69z" />
    <glyph glyph-name="registered" unicode="&#xae;" horiz-adv-x="836" 
d="M779 350q0 -77 -27.5 -143t-76 -114.5t-114.5 -76t-143 -27.5t-143 27.5t-114.5 76t-76 114.5t-27.5 143t27.5 143t76 114.5t114.5 76t143 27.5t143 -27.5t114.5 -76t76 -114.5t27.5 -143zM705 350q0 65 -22 118.5t-60 91.5t-91 59t-114 21q-62 0 -114.5 -21t-90.5 -59
t-60 -91.5t-22 -118.5t22 -118.5t60 -91.5t90.5 -59t114.5 -21q61 0 114 21t91 59t60 91.5t22 118.5zM482 163l-64 132h-44v-132h-107v392h176q69 0 111 -29t42 -99q0 -45 -19.5 -72.5t-51.5 -42.5l78 -149h-121zM488 424q0 19 -11 30.5t-37 11.5h-66v-85h64q27 0 38.5 11
t11.5 32z" />
    <glyph glyph-name="copyright" unicode="&#xa9;" horiz-adv-x="836" 
d="M779 350q0 -77 -27.5 -143t-76 -114.5t-114.5 -76t-143 -27.5t-143 27.5t-114.5 76t-76 114.5t-27.5 143t27.5 143t76 114.5t114.5 76t143 27.5t143 -27.5t114.5 -76t76 -114.5t27.5 -143zM705 350q0 65 -22 118.5t-60 91.5t-91 59t-114 21q-62 0 -114.5 -21t-90.5 -59
t-60 -91.5t-22 -118.5t22 -118.5t60 -91.5t90.5 -59t114.5 -21q61 0 114 21t91 59t60 91.5t22 118.5zM582 253q-10 -19 -23.5 -37t-33 -32.5t-45.5 -23t-61 -8.5q-44 0 -77.5 15t-56 42t-34 64t-11.5 81q0 47 13 84.5t37 63.5t57 40t72 14q36 0 62 -7.5t45 -22t32 -36
t23 -49.5l-99 -39q-11 28 -23.5 44t-39.5 16q-35 0 -50 -30.5t-15 -77.5q0 -45 15.5 -76t50.5 -31q26 0 40 13.5t30 41.5l92 -49v0z" />
    <glyph glyph-name="trademark" unicode="&#x2122;" horiz-adv-x="839" 
d="M705 308v94v55t2 49q-9 -22 -22 -52t-23 -51l-52 -108l-51 108q-11 21 -24 51t-22 52q2 -23 2 -49v-55v-94h-101v392h99l48 -104q18 -38 31.5 -70t18.5 -49q5 17 17.5 47.5t31.5 71.5l48 104h99v-392h-102zM243 606v-298h-109v298h-110v94h328v-94h-109z" />
    <glyph glyph-name="acute" unicode="&#xb4;" horiz-adv-x="500" 
d="M252 595h-128l72 160h213z" />
    <glyph glyph-name="dieresis" unicode="&#xa8;" horiz-adv-x="500" 
d="M458 686q0 -17 -7.5 -32.5t-19.5 -27.5t-28 -19t-33 -7q-18 0 -34.5 7t-28.5 19t-19.5 27.5t-7.5 32.5q0 18 7.5 34t19.5 28t28.5 19t34.5 7q17 0 33 -7t28 -19t19.5 -28t7.5 -34zM220 686q0 -17 -7.5 -32.5t-19.5 -27.5t-28 -19t-34 -7t-34 7t-28 19t-19.5 27.5
t-7.5 32.5q0 18 7.5 34t19.5 28t28 19t34 7t34 -7t28 -19t19.5 -28t7.5 -34z" />
    <glyph glyph-name="notequal" 
d="M652 217q-23 -19 -40 -7q-10 7 -12 16.5t2 26.5l8 36h-132v-113l36 8q17 4 26.5 2t16.5 -12q12 -17 -7 -40l-137 -159l-137 159q-19 23 -7 40q7 10 16.5 12t26.5 -2l36 -8v113h-132l8 -36q4 -17 2 -26.5t-12 -16.5q-17 -12 -40 7l-159 137l159 137q23 19 40 7
q10 -7 12 -16.5t-2 -26.5l-8 -36h132v105l-36 -8q-17 -4 -26.5 -2t-16.5 12q-12 17 7 40l137 159l137 -159q19 -23 7 -40q-7 -10 -16.5 -12t-26.5 2l-36 8v-105h132l-8 36q-4 17 -2 26.5t12 16.5q17 12 40 -7l159 -137z" />
    <glyph glyph-name="AE" unicode="&#xc6;" horiz-adv-x="1071" 
d="M512 0v76h-242l-47 -76h-209l470 700h527v-163h-324v-93h187v-161h-187v-120h331v-163h-506zM514 492q-15 -34 -39 -77t-46 -79l-68 -114h151v115q0 15 0.5 37.5t0.5 45t0.5 42t0.5 30.5z" />
    <glyph glyph-name="Oslash" unicode="&#xd8;" horiz-adv-x="732" 
d="M616 600q35 -45 54.5 -107.5t19.5 -141.5q0 -87 -24 -154.5t-67 -113.5t-103 -70t-131 -24q-52 0 -102 14l-31 -53h-208l90 153q-35 45 -53.5 106.5t-18.5 139.5q0 87 24 154.5t67 113.5t103 70t131 24q54 0 99 -13l31 52h208zM489 349q0 95 -32.5 144t-91.5 49
t-90.5 -48t-31.5 -143t32.5 -144t91.5 -49t90.5 48t31.5 143z" />
    <glyph glyph-name="infinity" 
d="M652 217q-23 -19 -40 -7q-10 7 -12 16.5t2 26.5l8 36h-132v-113l36 8q17 4 26.5 2t16.5 -12q12 -17 -7 -40l-137 -159l-137 159q-19 23 -7 40q7 10 16.5 12t26.5 -2l36 -8v113h-132l8 -36q4 -17 2 -26.5t-12 -16.5q-17 -12 -40 7l-159 137l159 137q23 19 40 7
q10 -7 12 -16.5t-2 -26.5l-8 -36h132v105l-36 -8q-17 -4 -26.5 -2t-16.5 12q-12 17 7 40l137 159l137 -159q19 -23 7 -40q-7 -10 -16.5 -12t-26.5 2l-36 8v-105h132l-8 36q-4 17 -2 26.5t12 16.5q17 12 40 -7l159 -137z" />
    <glyph glyph-name="plusminus" unicode="&#xb1;" 
d="M652 217q-23 -19 -40 -7q-10 7 -12 16.5t2 26.5l8 36h-132v-113l36 8q17 4 26.5 2t16.5 -12q12 -17 -7 -40l-137 -159l-137 159q-19 23 -7 40q7 10 16.5 12t26.5 -2l36 -8v113h-132l8 -36q4 -17 2 -26.5t-12 -16.5q-17 -12 -40 7l-159 137l159 137q23 19 40 7
q10 -7 12 -16.5t-2 -26.5l-8 -36h132v105l-36 -8q-17 -4 -26.5 -2t-16.5 12q-12 17 7 40l137 159l137 -159q19 -23 7 -40q-7 -10 -16.5 -12t-26.5 2l-36 8v-105h132l-8 36q-4 17 -2 26.5t12 16.5q17 12 40 -7l159 -137z" />
    <glyph glyph-name="lessequal" 
d="M652 217q-23 -19 -40 -7q-10 7 -12 16.5t2 26.5l8 36h-132v-113l36 8q17 4 26.5 2t16.5 -12q12 -17 -7 -40l-137 -159l-137 159q-19 23 -7 40q7 10 16.5 12t26.5 -2l36 -8v113h-132l8 -36q4 -17 2 -26.5t-12 -16.5q-17 -12 -40 7l-159 137l159 137q23 19 40 7
q10 -7 12 -16.5t-2 -26.5l-8 -36h132v105l-36 -8q-17 -4 -26.5 -2t-16.5 12q-12 17 7 40l137 159l137 -159q19 -23 7 -40q-7 -10 -16.5 -12t-26.5 2l-36 8v-105h132l-8 36q-4 17 -2 26.5t12 16.5q17 12 40 -7l159 -137z" />
    <glyph glyph-name="greaterequal" 
d="M652 217q-23 -19 -40 -7q-10 7 -12 16.5t2 26.5l8 36h-132v-113l36 8q17 4 26.5 2t16.5 -12q12 -17 -7 -40l-137 -159l-137 159q-19 23 -7 40q7 10 16.5 12t26.5 -2l36 -8v113h-132l8 -36q4 -17 2 -26.5t-12 -16.5q-17 -12 -40 7l-159 137l159 137q23 19 40 7
q10 -7 12 -16.5t-2 -26.5l-8 -36h132v105l-36 -8q-17 -4 -26.5 -2t-16.5 12q-12 17 7 40l137 159l137 -159q19 -23 7 -40q-7 -10 -16.5 -12t-26.5 2l-36 8v-105h132l-8 36q-4 17 -2 26.5t12 16.5q17 12 40 -7l159 -137z" />
    <glyph glyph-name="yen" unicode="&#xa5;" horiz-adv-x="726" 
d="M456 256v-17h160v-145h-160v-94h-186v94h-160v145h160v14l-254 447h224l50 -106q26 -57 45 -103.5t29 -77.5q10 32 29 79.5t45 101.5l50 106h222z" />
    <glyph glyph-name="mu" unicode="&#xb5;" horiz-adv-x="820" 
d="M613 186q-28 -21 -46 -8q-11 8 -13.5 19t1.5 31l9 46h-308l9 -46q4 -20 1.5 -31t-13.5 -19q-18 -13 -46 8l-192 168l192 168q28 21 46 8q11 -8 13.5 -18.5t-1.5 -31.5l-9 -46h308l-9 46q-4 21 -1.5 31.5t13.5 18.5q18 13 46 -8l192 -168z" />
    <glyph glyph-name="partialdiff" horiz-adv-x="450" 
d="M401 213q13 -18 -8 -46l-168 -192l-168 192q-21 28 -8 46q8 11 18.5 13.5t31.5 -1.5l46 -9v268l-46 -9q-21 -4 -31.5 -1.5t-18.5 13.5q-13 18 8 46l168 192l168 -192q21 -28 8 -46q-8 -11 -19 -13.5t-31 1.5l-46 9v-268l46 9q20 4 31 1.5t19 -13.5z" />
    <glyph glyph-name="summation" 
d="M652 217q-23 -19 -40 -7q-10 7 -12 16.5t2 26.5l8 36h-132v-113l36 8q17 4 26.5 2t16.5 -12q12 -17 -7 -40l-137 -159l-137 159q-19 23 -7 40q7 10 16.5 12t26.5 -2l36 -8v113h-132l8 -36q4 -17 2 -26.5t-12 -16.5q-17 -12 -40 7l-159 137l159 137q23 19 40 7
q10 -7 12 -16.5t-2 -26.5l-8 -36h132v105l-36 -8q-17 -4 -26.5 -2t-16.5 12q-12 17 7 40l137 159l137 -159q19 -23 7 -40q-7 -10 -16.5 -12t-26.5 2l-36 8v-105h132l-8 36q-4 17 -2 26.5t12 16.5q17 12 40 -7l159 -137z" />
    <glyph glyph-name="product" 
d="M652 217q-23 -19 -40 -7q-10 7 -12 16.5t2 26.5l8 36h-132v-113l36 8q17 4 26.5 2t16.5 -12q12 -17 -7 -40l-137 -159l-137 159q-19 23 -7 40q7 10 16.5 12t26.5 -2l36 -8v113h-132l8 -36q4 -17 2 -26.5t-12 -16.5q-17 -12 -40 7l-159 137l159 137q23 19 40 7
q10 -7 12 -16.5t-2 -26.5l-8 -36h132v105l-36 -8q-17 -4 -26.5 -2t-16.5 12q-12 17 7 40l137 159l137 -159q19 -23 7 -40q-7 -10 -16.5 -12t-26.5 2l-36 8v-105h132l-8 36q-4 17 -2 26.5t12 16.5q17 12 40 -7l159 -137z" />
    <glyph glyph-name="pi" horiz-adv-x="836" 
d="M779 350q0 -77 -27.5 -143t-76 -114.5t-114.5 -76t-143 -27.5t-143 27.5t-114.5 76t-76 114.5t-27.5 143t27.5 143t76 114.5t114.5 76t143 27.5t143 -27.5t114.5 -76t76 -114.5t27.5 -143zM705 350q0 65 -22 118.5t-60 91.5t-91 59t-114 21q-62 0 -114.5 -21t-90.5 -59
t-60 -91.5t-22 -118.5t22 -118.5t60 -91.5t90.5 -59t114.5 -21q61 0 114 21t91 59t60 91.5t22 118.5zM603 416q0 -38 -12 -63.5t-33 -41.5t-50.5 -23t-64.5 -7h-54v-127h-107v392h169q34 0 62 -7t48 -22.5t31 -40t11 -60.5zM495 414q0 20 -10.5 31.5t-36.5 11.5h-59v-88h57
q26 0 37.5 11.5t11.5 33.5z" />
    <glyph glyph-name="integral" horiz-adv-x="572" 
d="M335 0v37q-26 -21 -54 -34.5t-70 -13.5q-37 0 -68.5 15t-55 48t-37 84.5t-13.5 124.5q0 142 47.5 208.5t133.5 66.5q40 0 67.5 -14.5t49.5 -31.5v35h181v-525h-181zM335 363q-14 11 -28.5 18t-35.5 7q-14 0 -24.5 -5t-18 -18.5t-11 -37t-3.5 -60.5q0 -39 3.5 -64.5
t11 -40t18.5 -20t25 -5.5q20 0 34.5 7t28.5 18v201z" />
    <glyph glyph-name="ordfeminine" unicode="&#xaa;" horiz-adv-x="500" 
d="M295 276v29q-20 -16 -47 -26.5t-56 -10.5q-63 0 -100.5 37t-37.5 109q0 69 42.5 104t110.5 35q29 0 50 -5t38 -13v21q0 28 -15 39t-45 11q-32 0 -59 -7t-59 -24l-38 97q39 19 83 29t100 10q90 0 130.5 -42t40.5 -116v-277h-138zM295 450q-12 5 -26.5 8.5t-35.5 3.5
q-45 0 -45 -45q0 -20 10.5 -33.5t34.5 -13.5q18 0 35 6.5t27 14.5v59z" />
    <glyph glyph-name="ordmasculine" unicode="&#xba;" horiz-adv-x="502" 
d="M453 490q0 -55 -15 -96.5t-42 -69.5t-64 -42t-81 -14t-81 14t-64 42t-42 69.5t-15 96.5t15 96.5t42 69.5t64 41.5t81 13.5t81 -13.5t64 -41.5t42 -69.5t15 -96.5zM309 490q0 54 -14.5 78.5t-43.5 24.5t-43.5 -24.5t-14.5 -78.5q0 -104 58 -104t58 104z" />
    <glyph glyph-name="Omega" horiz-adv-x="450" 
d="M401 487q-8 -11 -19 -13.5t-31 1.5l-46 9v-484h-160v484l-46 -9q-21 -4 -31.5 -1.5t-18.5 13.5q-13 18 8 46l168 192l168 -192q21 -28 8 -46z" />
    <glyph glyph-name="ae" unicode="&#xe6;" horiz-adv-x="847" 
d="M812 246v-19.5t-1 -15.5h-308q5 -44 28.5 -64t60.5 -20q35 0 66 8.5t70 28.5l69 -115q-49 -29 -100.5 -44.5t-113.5 -15.5q-61 0 -100 21.5t-62 53.5q-34 -35 -82 -55t-111 -20q-97 0 -143.5 46t-46.5 135q0 42 14 74t39 53.5t59.5 32.5t76.5 11q36 0 61.5 -6t47.5 -16
v26q0 35 -18.5 48.5t-55.5 13.5q-41 0 -74.5 -8.5t-71.5 -29.5l-47 119q48 23 102.5 35.5t118.5 12.5q57 0 91.5 -16.5t54.5 -47.5q25 31 61 47.5t86 16.5q52 0 94 -18t72 -54t46.5 -90.5t16.5 -127.5zM653 323q-7 40 -23.5 60t-56.5 20q-61 0 -70 -80h150v0zM336 214
q-15 7 -33 11t-44 4q-56 0 -56 -56q0 -25 13.5 -41t42.5 -16q23 0 43.5 7.5t33.5 18.5v72z" />
    <glyph glyph-name="oslash" unicode="&#xf8;" horiz-adv-x="569" 
d="M477 452q27 -34 42 -81t15 -108q0 -68 -18.5 -119t-52 -85.5t-79.5 -52t-100 -17.5q-43 0 -76 10l-29 -49h-163l74 125q-26 35 -40.5 81.5t-14.5 106.5q0 69 18.5 120t51.5 85t79 51t100 17q39 0 74 -9l29 48h163zM355 263q0 67 -18 97t-53 30t-53 -30t-18 -97
q0 -128 71 -128t71 128z" />
    <glyph glyph-name="questiondown" unicode="&#xbf;" horiz-adv-x="602" 
d="M429 607q0 -45 -29.5 -73.5t-74.5 -28.5t-74.5 28.5t-29.5 73.5q0 22 8 41t21.5 33t32.5 22t42 8q22 0 41.5 -8t33 -22t21.5 -33t8 -41zM581 75q-63 -40 -132 -63t-153 -23q-61 0 -110 12t-83.5 36t-53 60t-18.5 84q0 30 7.5 53.5t22.5 43t38.5 36t55.5 32.5
q43 21 61 44.5t18 59.5h179q0 -32 -6 -58.5t-21 -49.5t-40 -42.5t-63 -37.5q-32 -15 -47 -28t-15 -34q0 -23 18.5 -35.5t59.5 -12.5q54 0 101.5 18.5t91.5 47.5l89 -143v0z" />
    <glyph glyph-name="exclamdown" unicode="&#xa1;" horiz-adv-x="350" 
d="M279 607q0 -45 -29.5 -73.5t-74.5 -28.5t-74.5 28.5t-29.5 73.5q0 22 8 41t21.5 33t32.5 22t42 8q22 0 41.5 -8t33 -22t21.5 -33t8 -41zM76 0v250l33 200h132l33 -200v-250h-198z" />
    <glyph glyph-name="logicalnot" unicode="&#xac;" horiz-adv-x="660" 
d="M453 186q-28 -21 -46 -8q-11 8 -13.5 19t1.5 31l9 46h-359v160h359l-9 46q-4 21 -1.5 31.5t13.5 18.5q18 13 46 -8l192 -168z" />
    <glyph glyph-name="radical" horiz-adv-x="706" 
d="M407 0h-185l-184 340h190l25 -53q19 -41 34 -78.5t21 -65.5q5 29 15.5 69t23.5 79l130 409h193z" />
    <glyph glyph-name="florin" unicode="&#x192;" horiz-adv-x="433" 
d="M384 573q-11 5 -28 8t-31 3q-23 0 -31 -7.5t-8 -25.5v-26h86v-141h-83v-506l-177 -71v577h-61v141h61v36q0 81 36.5 115.5t116.5 34.5q35 0 67.5 -6t51.5 -16v-116v0z" />
    <glyph glyph-name="approxequal" horiz-adv-x="450" 
d="M401 213q13 -18 -8 -46l-168 -192l-168 192q-21 28 -8 46q8 11 18.5 13.5t31.5 -1.5l46 -9v484h160v-484l46 9q20 4 31 1.5t19 -13.5z" />
    <glyph glyph-name="Delta" horiz-adv-x="660" 
d="M256 274l9 -46q4 -20 1.5 -31t-13.5 -19q-18 -13 -46 8l-192 168l192 168q28 21 46 8q11 -8 13.5 -18.5t-1.5 -31.5l-9 -46h359v-160h-359z" />
    <glyph glyph-name="guillemotleft" unicode="&#xab;" horiz-adv-x="694" 
d="M458 0l-127 262l127 263h195l-131 -262l131 -263h-195zM157 0l-127 262l127 263h195l-131 -262l131 -263h-195z" />
    <glyph glyph-name="guillemotright" unicode="&#xbb;" horiz-adv-x="694" 
d="M537 0h-195l131 262l-131 263h195l127 -262zM236 0h-195l131 262l-131 263h195l127 -262z" />
    <glyph glyph-name="ellipsis" unicode="&#x2026;" horiz-adv-x="942" 
d="M900 104q0 -50 -32.5 -82.5t-82.5 -32.5t-82.5 32.5t-32.5 82.5t32.5 81.5t82.5 31.5t82.5 -31.5t32.5 -81.5zM586 104q0 -50 -32.5 -82.5t-82.5 -32.5t-82.5 32.5t-32.5 82.5t32.5 81.5t82.5 31.5t82.5 -31.5t32.5 -81.5zM272 104q0 -50 -32.5 -82.5t-82.5 -32.5
t-82.5 32.5t-32.5 82.5t32.5 81.5t82.5 31.5t82.5 -31.5t32.5 -81.5z" />
    <glyph glyph-name="nonbreakingspace" horiz-adv-x="165" 
 />
    <glyph glyph-name="Agrave" unicode="&#xc0;" horiz-adv-x="762" 
d="M523 0l-38 123h-210l-38 -123h-208l254 700h196l254 -700h-210zM425 323q-9 34 -16 59t-12.5 45t-9.5 36.5t-7 34.5q-3 -18 -7 -35t-9.5 -37t-12.5 -45t-16 -58l-13 -46h116zM326 745l-157 160h213l72 -160h-128z" />
    <glyph glyph-name="Atilde" unicode="&#xc3;" horiz-adv-x="762" 
d="M523 0l-38 123h-210l-38 -123h-208l254 700h196l254 -700h-210zM425 323q-9 34 -16 59t-12.5 45t-9.5 36.5t-7 34.5q-3 -18 -7 -35t-9.5 -37t-12.5 -45t-16 -58l-13 -46h116zM592 899q0 -33 -9 -62t-26 -50t-41.5 -33t-54.5 -12q-28 0 -47 5.5t-42 19.5q-22 13 -36 21
t-25 8q-17 0 -25 -12.5t-12 -38.5h-103q0 33 9 62t26 50t41.5 33t54.5 12q28 0 47 -5.5t42 -19.5q22 -13 36 -21t25 -8q31 0 37 51h103v0z" />
    <glyph glyph-name="Otilde" unicode="&#xd5;" horiz-adv-x="732" 
d="M690 351q0 -87 -24 -154.5t-67 -113.5t-103 -70t-131 -24t-130.5 23.5t-102.5 69t-66.5 113t-23.5 154.5t24 154.5t67 113.5t103 70t131 24t130.5 -23.5t102 -69t66.5 -113t24 -154.5zM489 349q0 95 -32.5 144t-91.5 49t-90.5 -48t-31.5 -143t32.5 -144t91.5 -49t90.5 48
t31.5 143zM571 899q0 -33 -9 -62t-26 -50t-41.5 -33t-54.5 -12q-28 0 -47 5.5t-42 19.5q-22 13 -36 21t-25 8q-17 0 -25 -12.5t-12 -38.5h-103q0 33 9 62t26 50t41.5 33t54.5 12q28 0 47 -5.5t42 -19.5q22 -13 36 -21t25 -8q31 0 37 51h103v0z" />
    <glyph glyph-name="OE" unicode="&#x152;" horiz-adv-x="1063" 
d="M532 0v65q-28 -38 -74 -57t-103 -19q-66 0 -123.5 23.5t-99.5 69t-66 113t-24 154.5t24.5 154.5t67 113.5t100 70t123.5 24q58 0 102.5 -19t72.5 -57v65h471v-163h-334v-93h197v-161h-197v-120h341v-163h-478zM489 349q0 95 -32.5 144t-91.5 49t-90.5 -48t-31.5 -143
t32.5 -144t91.5 -49t90.5 48t31.5 143z" />
    <glyph glyph-name="oe" unicode="&#x153;" horiz-adv-x="862" 
d="M827 246v-19.5t-1 -15.5h-308q5 -44 28.5 -64t60.5 -20q35 0 66 8.5t70 28.5l69 -115q-49 -29 -100.5 -44.5t-108.5 -15.5q-35 0 -60 6t-44 16t-33.5 24t-26.5 30q-29 -34 -65.5 -55t-94.5 -21q-52 0 -96.5 17.5t-77.5 52t-51.5 85.5t-18.5 119q0 69 18.5 120t51.5 85
t77.5 51t96.5 17q112 0 163 -74q56 74 156 74q51 0 93.5 -18t72.5 -54t46.5 -90.5t16.5 -127.5zM668 323q-7 40 -23.5 60t-56.5 20q-61 0 -70 -80h150v0zM355 263q0 67 -18 97t-53 30t-53 -30t-18 -97q0 -128 71 -128t71 128z" />
    <glyph glyph-name="endash" unicode="&#x2013;" horiz-adv-x="556" 
d="M68 268v180h420v-180h-420z" />
    <glyph glyph-name="emdash" unicode="&#x2014;" horiz-adv-x="656" 
d="M68 268v180h520v-180h-520z" />
    <glyph glyph-name="quotedblleft" unicode="&#x201c;" horiz-adv-x="608" 
d="M530 382h-205l96 318h123zM246 382h-205l96 318h123z" />
    <glyph glyph-name="quotedblright" unicode="&#x201d;" horiz-adv-x="608" 
d="M471 382h-123l14 318h205zM187 382h-123l14 318h205z" />
    <glyph glyph-name="quoteleft" unicode="&#x2018;" horiz-adv-x="324" 
d="M246 382h-205l96 318h123z" />
    <glyph glyph-name="quoteright" unicode="&#x2019;" horiz-adv-x="324" 
d="M187 382h-123l14 318h205z" />
    <glyph glyph-name="divide" unicode="&#xf7;" 
d="M652 217q-23 -19 -40 -7q-10 7 -12 16.5t2 26.5l8 36h-132v-113l36 8q17 4 26.5 2t16.5 -12q12 -17 -7 -40l-137 -159l-137 159q-19 23 -7 40q7 10 16.5 12t26.5 -2l36 -8v113h-132l8 -36q4 -17 2 -26.5t-12 -16.5q-17 -12 -40 7l-159 137l159 137q23 19 40 7
q10 -7 12 -16.5t-2 -26.5l-8 -36h132v105l-36 -8q-17 -4 -26.5 -2t-16.5 12q-12 17 7 40l137 159l137 -159q19 -23 7 -40q-7 -10 -16.5 -12t-26.5 2l-36 8v-105h132l-8 36q-4 17 -2 26.5t12 16.5q17 12 40 -7l159 -137z" />
    <glyph glyph-name="lozenge" 
d="M652 217q-23 -19 -40 -7q-10 7 -12 16.5t2 26.5l8 36h-132v-113l36 8q17 4 26.5 2t16.5 -12q12 -17 -7 -40l-137 -159l-137 159q-19 23 -7 40q7 10 16.5 12t26.5 -2l36 -8v113h-132l8 -36q4 -17 2 -26.5t-12 -16.5q-17 -12 -40 7l-159 137l159 137q23 19 40 7
q10 -7 12 -16.5t-2 -26.5l-8 -36h132v105l-36 -8q-17 -4 -26.5 -2t-16.5 12q-12 17 7 40l137 159l137 -159q19 -23 7 -40q-7 -10 -16.5 -12t-26.5 2l-36 8v-105h132l-8 36q-4 17 -2 26.5t12 16.5q17 12 40 -7l159 -137z" />
    <glyph glyph-name="ydieresis" unicode="&#xff;" horiz-adv-x="590" 
d="M321 -185h-172l66 163l-200 547h191l50 -187q4 -17 10 -41t12 -50.5t11 -51.5t7 -44q3 19 8 44.5t11 51.5t11.5 51t10.5 42l49 185h189zM503 677q0 -17 -7.5 -32.5t-19.5 -27.5t-28 -19t-33 -7q-18 0 -34.5 7t-28.5 19t-19.5 27.5t-7.5 32.5q0 18 7.5 34t19.5 28t28.5 19
t34.5 7q17 0 33 -7t28 -19t19.5 -28t7.5 -34zM265 677q0 -17 -7.5 -32.5t-19.5 -27.5t-28 -19t-34 -7t-34 7t-28 19t-19.5 27.5t-7.5 32.5q0 18 7.5 34t19.5 28t28 19t34 7t34 -7t28 -19t19.5 -28t7.5 -34z" />
    <glyph glyph-name="Ydieresis" unicode="&#x178;" horiz-adv-x="746" 
d="M471 261v-261h-196v258l-259 442h224l54 -106q28 -55 49 -102.5t31 -78.5q10 31 31 78.5t49 102.5l54 106h222zM581 831q0 -17 -7.5 -32.5t-19.5 -27.5t-28 -19t-33 -7q-18 0 -34.5 7t-28.5 19t-19.5 27.5t-7.5 32.5q0 18 7.5 34t19.5 28t28.5 19t34.5 7q17 0 33 -7
t28 -19t19.5 -28t7.5 -34zM343 831q0 -17 -7.5 -32.5t-19.5 -27.5t-28 -19t-34 -7t-34 7t-28 19t-19.5 27.5t-7.5 32.5q0 18 7.5 34t19.5 28t28 19t34 7t34 -7t28 -19t19.5 -28t7.5 -34z" />
    <glyph glyph-name="fraction" horiz-adv-x="526" 
d="M152 0h-217l439 700h217z" />
    <glyph glyph-name="currency" unicode="&#xa4;" 
d="M652 217q-23 -19 -40 -7q-10 7 -12 16.5t2 26.5l8 36h-132v-113l36 8q17 4 26.5 2t16.5 -12q12 -17 -7 -40l-137 -159l-137 159q-19 23 -7 40q7 10 16.5 12t26.5 -2l36 -8v113h-132l8 -36q4 -17 2 -26.5t-12 -16.5q-17 -12 -40 7l-159 137l159 137q23 19 40 7
q10 -7 12 -16.5t-2 -26.5l-8 -36h132v105l-36 -8q-17 -4 -26.5 -2t-16.5 12q-12 17 7 40l137 159l137 -159q19 -23 7 -40q-7 -10 -16.5 -12t-26.5 2l-36 8v-105h132l-8 36q-4 17 -2 26.5t12 16.5q17 12 40 -7l159 -137z" />
    <glyph glyph-name="guilsinglleft" unicode="&#x2039;" horiz-adv-x="393" 
d="M157 0l-127 262l127 263h195l-131 -262l131 -263h-195z" />
    <glyph glyph-name="guilsinglright" unicode="&#x203a;" horiz-adv-x="393" 
d="M236 0h-195l131 262l-131 263h195l127 -262z" />
    <glyph glyph-name="fi" horiz-adv-x="680" 
d="M634 652q0 -42 -29 -65.5t-76 -23.5q-45 0 -74 23.5t-29 65.5q0 38 29 62.5t74 24.5q47 0 76 -24.5t29 -62.5zM439 0v525h180v-525h-180zM354 588q-24 11 -52 11q-20 0 -28 -7.5t-8 -25.5v-41h81v-141h-78v-384h-177v384h-56v141h56v51q0 81 35.5 115.5t112.5 34.5
q35 0 65 -6t49 -16v-116v0z" />
    <glyph glyph-name="fl" horiz-adv-x="680" 
d="M439 0v657l180 72v-729h-180zM354 588q-24 11 -52 11q-20 0 -28 -7.5t-8 -25.5v-41h81v-141h-78v-384h-177v384h-56v141h56v51q0 81 35.5 115.5t112.5 34.5q35 0 65 -6t49 -16v-116v0z" />
    <glyph glyph-name="daggerdbl" unicode="&#x2021;" horiz-adv-x="594" 
d="M383 86v-186h-172v186h-156v155h156v118h-156v155h156v186h172v-186h156v-155h-156v-118h156v-155h-156z" />
    <glyph glyph-name="periodcentered" unicode="&#xb7;" horiz-adv-x="314" 
d="M272 367q0 -50 -32.5 -82.5t-82.5 -32.5t-82.5 32.5t-32.5 82.5t32.5 81.5t82.5 31.5t82.5 -31.5t32.5 -81.5z" />
    <glyph glyph-name="periodcentered" unicode="&#x2219;" horiz-adv-x="314" 
d="M272 367q0 -50 -32.5 -82.5t-82.5 -32.5t-82.5 32.5t-32.5 82.5t32.5 81.5t82.5 31.5t82.5 -31.5t32.5 -81.5z" />
    <glyph glyph-name="quotesinglbase" unicode="&#x201a;" horiz-adv-x="324" 
d="M184 -109h-123l14 318h205z" />
    <glyph glyph-name="quotedblbase" unicode="&#x201e;" horiz-adv-x="608" 
d="M468 -109h-123l14 318h205zM184 -109h-123l14 318h205z" />
    <glyph glyph-name="perthousand" unicode="&#x2030;" horiz-adv-x="1535" 
d="M1515 208q0 -54 -16 -95t-44 -68.5t-66 -41.5t-82 -14t-82 13.5t-65.5 40.5t-43 68t-15.5 95t16 95t44 68.5t66 41.5t82 14t82 -13.5t65.5 -40.5t43 -68t15.5 -95zM1050 208q0 -54 -16 -95t-44 -68.5t-66 -41.5t-82 -14t-82 13.5t-65.5 40.5t-43 68t-15.5 95t16 95
t44 68.5t66 41.5t82 14t82 -13.5t65.5 -40.5t43 -68t15.5 -95zM402 0h-153l429 700h153zM444 494q0 -54 -16 -95t-44 -68.5t-66 -41.5t-82 -14t-82 13.5t-65.5 40.5t-43 68t-15.5 95t16 95t44 68.5t66 41.5t82 14t82 -13.5t65.5 -40.5t43 -68t15.5 -95zM1368 206
q0 63 -15 86.5t-45 23.5q-32 0 -46 -22.5t-14 -85.5t15 -86.5t46 -23.5t45 22.5t14 85.5zM903 206q0 63 -15 86.5t-45 23.5q-32 0 -46 -22.5t-14 -85.5t15 -86.5t46 -23.5t45 22.5t14 85.5zM297 492q0 63 -15 86.5t-45 23.5q-32 0 -46 -22.5t-14 -85.5t15 -86.5t46 -23.5
t45 22.5t14 85.5z" />
    <glyph glyph-name="Acircumflex" unicode="&#xc2;" horiz-adv-x="762" 
d="M523 0l-38 123h-210l-38 -123h-208l254 700h196l254 -700h-210zM425 323q-9 34 -16 59t-12.5 45t-9.5 36.5t-7 34.5q-3 -18 -7 -35t-9.5 -37t-12.5 -45t-16 -58l-13 -46h116zM463 763l-83 64l-83 -64h-118l131 160h142l131 -160h-120z" />
    <glyph glyph-name="Ecircumflex" unicode="&#xca;" horiz-adv-x="667" 
d="M71 0v700h536v-163h-344v-93h207v-161h-207v-120h351v-163h-543zM424 745l-83 64l-83 -64h-118l131 160h142l131 -160h-120z" />
    <glyph glyph-name="Aacute" unicode="&#xc1;" horiz-adv-x="762" 
d="M523 0l-38 123h-210l-38 -123h-208l254 700h196l254 -700h-210zM425 323q-9 34 -16 59t-12.5 45t-9.5 36.5t-7 34.5q-3 -18 -7 -35t-9.5 -37t-12.5 -45t-16 -58l-13 -46h116zM435 745h-128l72 160h213z" />
    <glyph glyph-name="Edieresis" unicode="&#xcb;" horiz-adv-x="667" 
d="M71 0v700h536v-163h-344v-93h207v-161h-207v-120h351v-163h-543zM549 836q0 -17 -7.5 -32.5t-19.5 -27.5t-28 -19t-33 -7q-18 0 -34.5 7t-28.5 19t-19.5 27.5t-7.5 32.5q0 18 7.5 34t19.5 28t28.5 19t34.5 7q17 0 33 -7t28 -19t19.5 -28t7.5 -34zM311 836
q0 -17 -7.5 -32.5t-19.5 -27.5t-28 -19t-34 -7t-34 7t-28 19t-19.5 27.5t-7.5 32.5q0 18 7.5 34t19.5 28t28 19t34 7t34 -7t28 -19t19.5 -28t7.5 -34z" />
    <glyph glyph-name="Egrave" unicode="&#xc8;" horiz-adv-x="667" 
d="M71 0v700h536v-163h-344v-93h207v-161h-207v-120h351v-163h-543zM291 745l-157 160h213l72 -160h-128z" />
    <glyph glyph-name="Iacute" unicode="&#xcd;" horiz-adv-x="350" 
d="M76 0v700h198v-700h-198zM235 745h-128l72 160h213z" />
    <glyph glyph-name="Icircumflex" unicode="&#xce;" horiz-adv-x="350" 
d="M76 0v700h198v-700h-198zM258 730l-83 64l-83 -64h-118l131 160h142l131 -160h-120z" />
    <glyph glyph-name="Idieresis" unicode="&#xcf;" horiz-adv-x="350" 
d="M76 0v700h198v-700h-198zM384 823q0 -17 -7.5 -32.5t-19.5 -27.5t-28 -19t-33 -7q-18 0 -34.5 7t-28.5 19t-19.5 27.5t-7.5 32.5q0 18 7.5 34t19.5 28t28.5 19t34.5 7q17 0 33 -7t28 -19t19.5 -28t7.5 -34zM146 823q0 -17 -7.5 -32.5t-19.5 -27.5t-28 -19t-34 -7t-34 7
t-28 19t-19.5 27.5t-7.5 32.5q0 18 7.5 34t19.5 28t28 19t34 7t34 -7t28 -19t19.5 -28t7.5 -34z" />
    <glyph glyph-name="Igrave" unicode="&#xcc;" horiz-adv-x="350" 
d="M76 0v700h198v-700h-198zM121 745l-157 160h213l72 -160h-128z" />
    <glyph glyph-name="Oacute" unicode="&#xd3;" horiz-adv-x="732" 
d="M690 351q0 -87 -24 -154.5t-67 -113.5t-103 -70t-131 -24t-130.5 23.5t-102.5 69t-66.5 113t-23.5 154.5t24 154.5t67 113.5t103 70t131 24t130.5 -23.5t102 -69t66.5 -113t24 -154.5zM489 349q0 95 -32.5 144t-91.5 49t-90.5 -48t-31.5 -143t32.5 -144t91.5 -49t90.5 48
t31.5 143zM418 745h-128l72 160h213z" />
    <glyph glyph-name="Ocircumflex" unicode="&#xd4;" horiz-adv-x="732" 
d="M690 351q0 -87 -24 -154.5t-67 -113.5t-103 -70t-131 -24t-130.5 23.5t-102.5 69t-66.5 113t-23.5 154.5t24 154.5t67 113.5t103 70t131 24t130.5 -23.5t102 -69t66.5 -113t24 -154.5zM489 349q0 95 -32.5 144t-91.5 49t-90.5 -48t-31.5 -143t32.5 -144t91.5 -49t90.5 48
t31.5 143zM448 740l-83 64l-83 -64h-118l131 160h142l131 -160h-120z" />
    <glyph glyph-name="apple" 
d="M652 217q-23 -19 -40 -7q-10 7 -12 16.5t2 26.5l8 36h-132v-113l36 8q17 4 26.5 2t16.5 -12q12 -17 -7 -40l-137 -159l-137 159q-19 23 -7 40q7 10 16.5 12t26.5 -2l36 -8v113h-132l8 -36q4 -17 2 -26.5t-12 -16.5q-17 -12 -40 7l-159 137l159 137q23 19 40 7
q10 -7 12 -16.5t-2 -26.5l-8 -36h132v105l-36 -8q-17 -4 -26.5 -2t-16.5 12q-12 17 7 40l137 159l137 -159q19 -23 7 -40q-7 -10 -16.5 -12t-26.5 2l-36 8v-105h132l-8 36q-4 17 -2 26.5t12 16.5q17 12 40 -7l159 -137z" />
    <glyph glyph-name="Ograve" unicode="&#xd2;" horiz-adv-x="732" 
d="M690 351q0 -87 -24 -154.5t-67 -113.5t-103 -70t-131 -24t-130.5 23.5t-102.5 69t-66.5 113t-23.5 154.5t24 154.5t67 113.5t103 70t131 24t130.5 -23.5t102 -69t66.5 -113t24 -154.5zM489 349q0 95 -32.5 144t-91.5 49t-90.5 -48t-31.5 -143t32.5 -144t91.5 -49t90.5 48
t31.5 143zM304 745l-157 160h213l72 -160h-128z" />
    <glyph glyph-name="Uacute" unicode="&#xda;" horiz-adv-x="748" 
d="M681 299q0 -83 -23.5 -142t-65 -96.5t-98 -54.5t-122.5 -17t-122 17t-96.5 54.5t-63.5 96.5t-23 142v401h198v-401q0 -65 26.5 -102t83.5 -37t82.5 37t25.5 102v401h198v-401v0zM429 730h-128l72 160h213z" />
    <glyph glyph-name="Ucircumflex" unicode="&#xdb;" horiz-adv-x="748" 
d="M681 299q0 -83 -23.5 -142t-65 -96.5t-98 -54.5t-122.5 -17t-122 17t-96.5 54.5t-63.5 96.5t-23 142v401h198v-401q0 -65 26.5 -102t83.5 -37t82.5 37t25.5 102v401h198v-401v0zM456 745l-83 64l-83 -64h-118l131 160h142l131 -160h-120z" />
    <glyph glyph-name="Ugrave" unicode="&#xd9;" horiz-adv-x="748" 
d="M681 299q0 -83 -23.5 -142t-65 -96.5t-98 -54.5t-122.5 -17t-122 17t-96.5 54.5t-63.5 96.5t-23 142v401h198v-401q0 -65 26.5 -102t83.5 -37t82.5 37t25.5 102v401h198v-401v0zM320 730l-157 160h213l72 -160h-128z" />
    <glyph glyph-name="dotlessi" unicode="&#xd;" horiz-adv-x="302" 
d="M61 0v525h180v-525h-180z" />
    <glyph glyph-name="circumflex" unicode="&#x2c6;" horiz-adv-x="500" 
d="M332 595l-83 64l-83 -64h-118l131 160h142l131 -160h-120z" />
    <glyph glyph-name="tilde" unicode="&#x2dc;" horiz-adv-x="500" 
d="M462 749q0 -33 -9 -62t-26 -50t-41.5 -33t-54.5 -12q-28 0 -47 5.5t-42 19.5q-22 13 -36 21t-25 8q-17 0 -25 -12.5t-12 -38.5h-103q0 33 9 62t26 50t41.5 33t54.5 12q28 0 47 -5.5t42 -19.5q22 -13 36 -21t25 -8q31 0 37 51h103v0z" />
    <glyph glyph-name="macron" unicode="&#xaf;" horiz-adv-x="500" 
d="M87 610v115h326v-115h-326z" />
    <glyph glyph-name="breve" horiz-adv-x="500" 
d="M443 755q-16 -78 -61 -119t-133 -41q-86 0 -131 41t-61 119h105q8 -26 27.5 -43.5t61.5 -17.5q41 0 60 17.5t27 43.5h105v0z" />
    <glyph glyph-name="dotaccent" horiz-adv-x="500" 
d="M344 686q0 -18 -7.5 -34.5t-20.5 -29t-30 -20t-36 -7.5q-18 0 -35 7.5t-30 20t-21 29t-8 34.5q0 19 8 36t21 30t30 20t35 7q19 0 36 -7t30 -20t20.5 -30t7.5 -36z" />
    <glyph glyph-name="ring" horiz-adv-x="500" 
d="M392 733q0 -30 -11 -55t-30.5 -43.5t-45 -29t-55.5 -10.5t-55.5 10.5t-45 29t-30.5 43.5t-11 55t11 55t30.5 44t45 29.5t55.5 10.5t55.5 -10.5t45 -29.5t30.5 -44t11 -55zM305 733q0 27 -14.5 43.5t-40.5 16.5t-40.5 -16.5t-14.5 -43.5t14.5 -43t40.5 -16t40.5 16
t14.5 43z" />
    <glyph glyph-name="cedilla" unicode="&#xb8;" horiz-adv-x="500" 
d="M370 -106q0 -41 -28.5 -64t-82.5 -23q-43 0 -79.5 10.5t-67.5 25.5l19 46q28 -13 53.5 -18.5t47.5 -5.5q21 0 33.5 6.5t12.5 20.5q0 23 -22 23q-11 0 -19.5 -4t-17.5 -10l-38 26l20 73h61l-12 -42q8 4 19 6.5t23 2.5q38 0 58 -20t20 -53z" />
    <glyph glyph-name="hungarumlaut" unicode="&#xa;" horiz-adv-x="500" 
d="M363 595h-123l77 160h193zM138 595h-123l77 160h193z" />
    <glyph glyph-name="ogonek" horiz-adv-x="500" 
d="M386 -148q-31 -21 -66.5 -33t-74.5 -12q-47 0 -74.5 22.5t-27.5 55.5q0 31 20 60t50 55h61q-17 -35 -22.5 -55.5t-5.5 -40.5q0 -13 10.5 -22t27.5 -9t38 5t47 16l17 -42v0z" />
    <glyph glyph-name="caron" horiz-adv-x="500" 
d="M321 595h-142l-131 160h120l83 -64l83 64h118z" />
    <glyph glyph-name="Eth" unicode="&#xd0;" horiz-adv-x="742" 
d="M696 354q0 -99 -24 -166.5t-72 -109t-118.5 -60t-163.5 -18.5h-227v285h-61v150h61v265h245q82 0 149 -17t113.5 -57.5t72 -106.5t25.5 -165zM497 351q0 48 -8.5 83t-27.5 57t-50 32.5t-76 10.5h-58v-99h88v-150h-88v-119h52q45 0 77 9.5t52.5 31t29.5 57t9 87.5z" />
    </font>
</defs>
</svg>
